SplineFontDB: 1.0
FontName: Tuffy-Bold-Italic
FullName: Tuffy Bold Italic
FamilyName: Tuffy
Weight: Bold
Copyright: Created by Thatcher Ulrich (http://tulrich.com) with FontForge 1.0 (http://fontforge.sf.net)\n\nThis font, including hint instructions, has been donated to the Public Domain.  Do whatever you want with it.\n
Comments: 2004-9-1: Created.
Version: 001.100
DefaultBaseFilename: Tuffy_Bold_Italic
ItalicAngle: -12
UnderlinePosition: -204
UnderlineWidth: 102
Ascent: 1597
Descent: 451
XUID: [1021 745 1046372284 7944954]
FSType: 0
OS2Version: 0
OS2_WeightWidthSlopeOnly: 0
OS2_UseTypoMetrics: 0
CreationTime: 1166531129
ModificationTime: 1171226833
PfmFamily: 33
TTFWeight: 700
TTFWidth: 5
LineGap: 190
VLineGap: 0
Panose: 2 11 8 3 6 1 0 0 0 0
OS2TypoAscent: 0
OS2TypoAOffset: 1
OS2TypoDescent: 0
OS2TypoDOffset: 1
OS2TypoLinegap: 0
OS2WinAscent: 0
OS2WinAOffset: 1
OS2WinDescent: 0
OS2WinDOffset: 1
HheadAscent: 0
HheadAOffset: 1
HheadDescent: 0
HheadDOffset: 1
OS2Vendor: 'PfEd'
ScriptLang: 2
 1 latn 1 dflt 
 1 DFLT 1 dflt 
TtfTable: cvt  4
!$MDh
EndTtf
LangName: 1033 "" "" "" "" "" "" "" "" "" "Thatcher Ulrich" "" "http://tulrich.com+AAoA" "http://tulrich.com+AAoA" "Public Domain+AAoA" 
Encoding: Custom
UnicodeInterp: none
NameList: Adobe Glyph List
DisplaySize: -48
AntiAlias: 1
FitToEm: 1
WinInfo: 85 17 7
BeginPrivate: 0
EndPrivate
Grid
1362 0 m 25,0,0
1362 1074 m 25,0,0
1362 0 m 25,0,0
1362 1074 m 25,0,0
1362 0 m 25,0,0
1362 1074 m 25,0,0
1362 0 m 25,0,0
-24 537 m 2,0,-1
 772 537 l 0
1090 1610 m 25,2,-1
 1090 -16 l 25
-20 1455 m 2,4,-1
 1696 1455 l 0
-22 1074 m 2,6,-1
 1694 1074 l 0
1003 1610 m 25,8,-1
 1003 -16 l 25
1151 1612 m 25,10,-1
 1151 -14 l 25
-24 730 m 2,12,-1
 772 730 l 0
-28 -29 m 2,14,-1
 1148 -29 l 0
115 1662 m 25,16,-1
 115 -14 l 25
EndSplineSet
TeXData: 1 0 0 315621 157810 105207 456131 1048576 105207 783286 444596 497025 792723 393216 433062 380633 303038 157286 324010 404750 52429 2506097 1059062 262144
BeginChars: 203 195
StartChar: exclam
Encoding: 1 33 1
Width: 457
Flags: HW
HStem: -33 328<116 351.3> 1463 20G<205.5 257.5>
VStem: 69 328<14 249.3> 92 280<1241.69 1454.7> 133 199<395.8 590.153>
Fore
426 440 m 1xc8
 418 406 343 381 314 381 c 1
 283.882 381 226.305 403.145 226.305 434.097 c 0
 226.305 436.031 226.529 438 227 440 c 1xc8
 387 1389 l 1
 399 1442 495 1483 546 1483 c 1
 595.906 1483 668.864 1444.87 668.864 1399.51 c 0
 668.864 1396.7 668.584 1393.86 668 1391 c 1xd0
 426 440 l 1xc8
EndSplineSet
Refer: 14 46 N 1 0 0 1 5 0 2
EndChar
StartChar: quotedbl
Encoding: 2 34 2
Width: 874
Flags: HW
VStem: 129 231<1355.7 1491.63> 504 231<1352.89 1491.63>
Back
442.368 1091.58 m 1
 421.886 1466.37 l 1
 421.89 1515.74 458.062 1542.25 493.697 1542.25 c 0
 495.021 1542.25 496.343 1542.22 497.664 1542.14 c 0
 529.511 1542.14 561.359 1523.8 569.437 1485.79 c 0
 570.71 1479.81 571.39 1473.33 571.39 1466.37 c 1
 550.912 1091.58 l 1
 548.864 1060.86 520.192 1044.48 495.616 1044.48 c 0
 473.258 1044.48 449.204 1056.35 443.505 1083.16 c 0
 442.938 1085.82 442.553 1088.63 442.368 1091.58 c 1
149.504 1091.58 m 1
 129.021 1466.37 l 1
 129.026 1515.74 165.198 1542.25 200.834 1542.25 c 0
 202.156 1542.25 203.48 1542.22 204.8 1542.14 c 0
 236.646 1542.14 268.495 1523.8 276.572 1485.79 c 0
 277.846 1479.81 278.526 1473.33 278.526 1466.37 c 1
 258.048 1091.58 l 1
 256 1060.86 227.328 1044.48 202.752 1044.48 c 0
 180.394 1044.48 156.34 1056.35 150.64 1083.16 c 0
 150.074 1085.82 149.688 1088.63 149.504 1091.58 c 1
EndSplineSet
Fore
756 1092 m 1
 816 1466 l 1
 826 1516 909 1542 945 1542 c 0
 946 1542 947 1542 949 1542 c 0
 971.59 1542 1049.27 1529.11 1049.27 1482.46 c 0
 1049.27 1477.33 1047.81 1471.66 1047 1466 c 1
 947 1092 l 1
 939 1061 865 1044 840 1044 c 0
 818 1044 755 1056 755 1083 c 0
 756 1086 755 1089 756 1092 c 1
382 1092 m 2
 441 1466 l 1
 451 1516 534 1542 570 1542 c 0
 571 1542 572 1542 574 1542 c 0
 595.427 1542 674.273 1530.09 674.273 1482.46 c 0
 674.273 1477.33 672.809 1471.66 672 1466 c 1
 572 1092 l 1
 564 1061 490 1044 466 1044 c 0
 443.181 1044 380.988 1055.81 380.988 1082.37 c 0
 380.988 1084.76 380.92 1088.76 382 1092 c 2
EndSplineSet
EndChar
StartChar: numbersign
Encoding: 3 35 3
Width: 1565
Flags: HMW
Back
958.464 546.816 m 0
 958.464 884.736 l 0
 616.448 884.736 l 0
 616.448 546.816 l 0
 958.464 546.816 l 0
1107.97 405.504 m 0
 1107.97 53.248 l 1
 958.464 53.248 l 1
 958.464 405.504 l 0
 616.448 405.504 l 0
 616.448 53.248 l 1
 466.944 53.248 l 1
 466.944 405.504 l 0
 118.784 405.504 l 1
 118.784 546.816 l 1
 466.944 546.816 l 0
 466.944 884.736 l 0
 118.784 884.736 l 1
 118.784 1024 l 1
 466.944 1024 l 0
 466.944 1402.88 l 1
 616.448 1402.88 l 1
 616.448 1024 l 0
 958.464 1024 l 0
 958.464 1402.88 l 1
 1107.97 1402.88 l 1
 1107.97 1024 l 0
 1468.42 1024 l 1
 1468.42 884.736 l 1
 1107.97 884.736 l 0
 1107.97 546.816 l 0
 1468.42 546.816 l 1
 1468.42 405.504 l 1
 1107.97 405.504 l 0
EndSplineSet
Fore
1003 596 m 0
 1054 836 l 0
 869 836 l 0
 818 596 l 0
 1003 596 l 0
1206 356 m 0
 1140 47 l 1
 886 47 l 1
 952 356 l 0
 767 356 l 0
 701 47 l 1
 447 47 l 1
 513 356 l 0
 195 356 l 1
 246 596 l 1
 564 596 l 0
 615 836 l 0
 297 836 l 1
 347 1073 l 1
 665 1073 l 0
 735 1403 l 1
 989 1403 l 1
 919 1073 l 0
 1104 1073 l 0
 1174 1403 l 1
 1428 1403 l 1
 1358 1073 l 0
 1669 1073 l 1
 1619 836 l 1
 1308 836 l 0
 1257 596 l 0
 1568 596 l 1
 1517 356 l 1
 1206 356 l 0
EndSplineSet
KernsSLIFO: 4 -55 0 0
EndChar
StartChar: dollar
Encoding: 4 36 4
Width: 927
Flags: HW
VStem: 432 170<-155 -26 225 578 885 1159 1405 1537>
Back
18.4316 343.497 m 1
 266.127 426.394 l 1
 333.824 282.624 372.736 212.992 530.432 212.992 c 1
 684.032 212.992 741.376 278.528 741.376 393.216 c 1
 741.376 507.371 649.912 578.865 464.896 626.688 c 0
 277.113 675.808 45.0557 769.688 45.0557 1028.1 c 1
 45.0557 1301.06 265.624 1409.64 513.186 1409.64 c 1
 742.695 1409.64 879.372 1331.23 968.09 1151.04 c 1
 705.098 1073.14 l 1
 662.622 1149.38 624.193 1169.41 509.952 1169.41 c 1
 400.085 1169.41 319.488 1156.44 319.488 1028.1 c 1
 319.488 897.611 480.215 863.31 583.537 831.054 c 0
 791.046 760.94 1015.81 671.55 1015.81 393.216 c 1
 1015.81 122.88 811.008 -28.6719 530.432 -28.6719 c 1
 253.952 -28.6719 114.688 102.4 18.4316 343.497 c 1
EndSplineSet
Fore
759 1537 m 1
 929 1537 l 1
 900 1404 l 1
 1066 1391 1165 1309 1217 1155 c 1
 935 1073 l 1
 910 1128 902 1145 848 1159 c 1
 777 823 l 1
 939.032 764.318 1108.73 684.924 1108.73 480.007 c 0
 1108.73 450.96 1105.32 419.39 1098 385 c 0
 1052 170 866 0 596 -26 c 1
 569 -155 l 1
 401 -155 l 1
 428 -26 l 1
 211 -8 112 186 93 344 c 1
 357 426 l 1
 377 348 403 238 482 225 c 1
 570 639 l 1
 394.399 679.656 255.464 769.699 255.464 956.378 c 0
 255.464 985.506 258.846 1016.99 266 1051 c 0
 310 1255 527 1393 731 1405 c 1
 759 1537 l 1
622 885 m 1
 682 1167 l 1
 590 1157 548 1077 541 1044 c 0
 536.984 1025.52 535.024 1009.27 535.024 994.839 c 0
 535.024 937.421 566.058 908.975 622 885 c 1
725 578 m 1
 648 217 l 1
 756 240 807 309 823 387 c 0
 825.328 398.125 827.523 412.797 827.523 429.337 c 0
 827.523 476.728 809.506 539.453 725 578 c 1
EndSplineSet
EndChar
StartChar: percent
Encoding: 5 37 5
Width: 1435
Flags: HW
HStem: 63 207<964.3 1091.7> 479 205<964.9 1091> 768 207<333.3 460.7> 1184 205<335.2 460>
VStem: 94 215<993.1 1150.4> 483 219<989.2 1150.4> 725 215<289.1 446.4> 1114 217<285.2 446.4>
Back
880.64 372.736 m 0
 880.64 286.72 935.937 219.136 1021.95 219.136 c 0
 1101.82 219.136 1169.41 282.624 1169.41 372.736 c 0
 1169.41 452.608 1105.92 522.24 1021.95 522.24 c 0
 944.128 522.24 880.64 452.608 880.64 372.736 c 0
751.616 372.736 m 0
 751.616 522.24 872.448 643.072 1024 643.072 c 0
 1175.55 643.072 1298.43 522.24 1298.43 372.736 c 0
 1298.43 223.232 1175.55 104.448 1024 104.448 c 0
 872.448 104.448 751.616 223.232 751.616 372.736 c 0
221.184 1077.25 m 0
 221.184 991.232 278.528 923.648 364.544 923.648 c 0
 444.416 923.648 512 987.136 512 1077.25 c 0
 512 1157.12 448.512 1226.75 364.544 1226.75 c 0
 286.72 1226.75 221.184 1157.12 221.184 1077.25 c 0
94.208 1077.25 m 0
 94.208 1226.75 215.04 1347.58 366.592 1347.58 c 0
 518.144 1347.58 641.024 1226.75 641.024 1077.25 c 0
 641.024 927.744 518.144 808.96 366.592 808.96 c 0
 215.04 808.96 94.208 927.744 94.208 1077.25 c 0
413.696 137.216 m 1
 264.192 137.216 l 1
 985.088 1318.91 l 0
 1128.45 1318.91 l 1
 413.696 137.216 l 1
EndSplineSet
Fore
1019 371 m 0
 1016.71 360.694 1015.62 351.057 1015.62 342.147 c 0
 1015.62 296.585 1044.02 270 1085 270 c 0
 1134 270 1179 305 1193 371 c 0
 1194.91 380.224 1195.83 389.246 1195.83 397.896 c 0
 1195.83 443.639 1170.05 479 1128 479 c 0
 1081 479 1031 429 1019 371 c 0
804 370 m 0
 841 544 1004 684 1173 684 c 0
 1317.67 684 1417.32 578.93 1417.32 438.357 c 0
 1417.32 416.665 1414.95 394.127 1410 371 c 0
 1374 200 1208 63 1041 63 c 0
 894.867 63 796.587 164.686 796.587 302.759 c 0
 796.587 324.365 798.994 346.862 804 370 c 0
537 1075 m 0
 534.987 1065.25 534.029 1056.12 534.029 1047.65 c 0
 534.029 1001.43 562.586 975 604 975 c 0
 653 975 697 1009 711 1075 c 0
 713.191 1084.78 714.246 1094.35 714.246 1103.52 c 0
 714.246 1148.74 688.573 1184 647 1184 c 0
 601 1184 550 1133 537 1075 c 0
323 1076 m 0
 359 1249 524 1389 692 1389 c 0
 838.282 1389 937.363 1283.36 937.363 1142.77 c 0
 937.363 1120.93 934.974 1098.26 930 1075 c 0
 894 904 729 768 560 768 c 0
 414.595 768 315.634 869.878 315.634 1008.8 c 0
 315.634 1030.39 318.024 1052.87 323 1076 c 0
510 119 m 1
 300 119 l 1
 1230 1337 l 0
 1431 1337 l 1
 510 119 l 1
EndSplineSet
EndChar
StartChar: ampersand
Encoding: 6 38 6
Width: 1284
Flags: HW
HStem: -53 241<372.9 756.4> 358 217<598 772 1026 1184> 707 239<425.7 727> 1278 242<434.4 652.8>
VStem: 59 261<257.7 632.1> 106 269<971.1 1259.7>
Back
751.616 1228.8 m 17xf4
 729.088 1292.29 626.688 1351.68 540.672 1351.68 c 1
 432.128 1351.68 319.488 1282.05 319.488 1134.59 c 1xf4
 319.488 978.944 425.984 897.024 557.056 897.024 c 1
 727.04 897.024 l 1
 727.04 755.712 l 1
 561.152 755.712 l 2
 374.784 755.712 237.568 630.784 237.568 430.08 c 0
 237.568 247.808 385.024 110.592 550.912 110.592 c 1
 720.896 110.592 833.536 256 833.536 407.552 c 1xfa
 618.496 407.552 l 1
 618.496 546.816 l 1
 1140.74 546.816 l 1
 1140.74 405.504 l 1xf1
 983.04 405.504 l 1
 983.04 231.424 862.208 -30.7197 550.912 -30.7197 c 1
 315.392 -30.7197 79.8721 126.976 79.8721 415.744 c 0xfa
 79.8721 696.32 245.76 802.816 354.304 827.392 c 1
 266.24 856.064 161.792 958.464 161.792 1134.59 c 0
 161.792 1339.39 323.584 1492.99 542.72 1492.99 c 0
 714.752 1492.99 825.344 1409.02 876.544 1304.58 c 9
 751.616 1228.8 l 17xf4
EndSplineSet
Fore
959 1167 m 17xf4
 946 1214 899 1278 813 1278 c 1
 731 1278 636 1227 613 1118 c 1xf4
 609.726 1102.59 608.164 1088.18 608.164 1074.79 c 0
 608.164 990.003 670.776 946 758 946 c 1
 928 946 l 1
 877 707 l 1
 711 707 l 2
 568 707 444 585 411 428 c 0
 406.942 409.016 404.964 390.495 404.964 372.699 c 0
 404.964 267.698 473.853 188 591 188 c 1
 749 188 830 272 848 358 c 1
 674 358 l 1
 720 575 l 1
 1306 575 l 1
 1261 360 l 1
 1103 360 l 1
 1068 197 874 -53 540 -53 c 1
 307.016 -53 132.445 91.8629 132.445 303.233 c 0
 132.445 331.372 135.538 360.689 142 391 c 0xf8
 208 701 394 795 474 828 c 1
 419.983 852.008 336.56 926.006 336.56 1051.26 c 0
 336.56 1072.08 338.867 1094.33 344 1118 c 0
 396 1364 626 1520 866 1520 c 0
 1061 1520 1164 1410 1193 1274 c 9
 959 1167 l 17xf4
EndSplineSet
EndChar
StartChar: quotesingle
Encoding: 7 39 7
Width: 464
Flags: HW
VStem: 129 231<1355.7 1491.63>
Back
118.784 1050.62 m 1
 118.784 1548.29 l 1
 268.288 1548.29 l 1
 268.288 1050.62 l 1
 118.784 1050.62 l 1
EndSplineSet
Fore
382 1092 m 2
 441 1466 l 1
 451 1516 534 1542 570 1542 c 0
 571 1542 572 1542 574 1542 c 0
 595.427 1542 674.273 1530.09 674.273 1482.46 c 0
 674.273 1477.33 672.809 1471.66 672 1466 c 1
 572 1092 l 1
 564 1061 490 1044 466 1044 c 0
 443.181 1044 380.988 1055.81 380.988 1082.37 c 0
 380.988 1084.76 380.92 1088.76 382 1092 c 2
EndSplineSet
EndChar
StartChar: parenleft
Encoding: 8 40 8
Width: 653
Flags: HW
VStem: 31 258<388.4 1077.4>
Back
268.288 -83.9678 m 1
 104.448 167.936 30.7197 458.752 30.7197 739.328 c 0
 30.7197 997.376 110.592 1314.82 268.288 1562.62 c 1
 446.464 1562.62 l 1
 262.144 1294.34 182.272 997.376 182.272 729.088 c 0
 182.272 466.944 272.384 169.984 446.464 -83.9678 c 1
 268.288 -83.9678 l 1
EndSplineSet
Fore
271 -84 m 1
 181.56 71.6251 147.228 231.161 147.228 396.092 c 0
 147.228 507.768 162.968 621.917 188 739 c 0
 245 1006 368 1307 621 1563 c 1
 885 1563 l 1
 644 1294 501 997 444 729 c 0
 425.478 642.341 416.035 551.853 416.035 460.359 c 0
 416.035 275.233 454.691 85.9873 535 -84 c 1
 271 -84 l 1
EndSplineSet
EndChar
StartChar: parenright
Encoding: 9 41 9
Width: 643
Flags: HW
VStem: 344 258<386.4 1046.8>
Back
256 -96.2559 m 1
 79.8721 -96.2559 l 1
 251.904 155.648 344.064 464.896 344.064 727.04 c 0
 344.064 972.8 253.952 1294.34 79.8721 1550.34 c 1
 256 1550.34 l 1
 413.696 1302.53 495.616 985.088 495.616 727.04 c 0
 495.616 452.608 417.792 151.552 256 -96.2559 c 1
EndSplineSet
Fore
320 -96 m 1
 60 -96 l 1
 285 156 443 465 499 727 c 0
 516.333 809 525.444 899.222 525.444 992.556 c 0
 525.444 1179.22 489 1378.33 409 1549 c 1
 670 1549 l 1
 758.663 1392.46 792.364 1219.85 792.364 1048.3 c 0
 792.364 939.305 778.758 830.737 757 727 c 0
 696 443 579 160 320 -96 c 1
EndSplineSet
EndChar
StartChar: asterisk
Encoding: 10 42 10
Width: 1172
Flags: HW
HStem: 604 231<137.367 272.421 897.581 1032.63>
Back
620.813 645.394 m 5
 826 332 l 5
 851 288.699 797.315 227.682 766.139 209.682 c 4
 765.272 209.182 764.406 208.682 762.675 207.682 c 4
 734.962 191.682 663.608 171.271 637.68 200.18 c 4
 632.947 204.376 629.447 210.438 625.947 216.5 c 5
 456.269 550.394 l 5
 442.5 578.24 494.622 627.963 515.406 639.963 c 4
 535.325 651.463 597.617 673.57 615.447 652.688 c 4
 617.813 650.59 619.313 647.991 620.813 645.394 c 5
572.675 551.712 m 5
 403.861 217.318 l 5
 378.861 174.017 299.177 190 268 208 c 4
 267.134 208.5 266.268 209 264.536 210 c 4
 236.823 226 183.47 277.589 195.541 314.498 c 4
 196.809 320.693 200.309 326.756 203.809 332.818 c 5
 408.13 646.712 l 5
 425.361 672.559 494.483 652.281 515.268 640.281 c 4
 535.187 628.781 585.479 585.889 576.309 560.006 c 4
 575.675 556.908 574.175 554.31 572.675 551.712 c 5
411.455 635 m 5
 206.269 948.394 l 5
 181.269 991.695 234.953 1052.71 266.13 1070.71 c 4
 266.996 1071.21 267.862 1071.71 269.594 1072.71 c 4
 297.307 1088.71 368.66 1109.12 394.589 1080.21 c 4
 399.321 1076.02 402.821 1069.96 406.321 1063.89 c 5
 576 730 l 5
 589.769 702.153 537.646 652.431 516.862 640.431 c 4
 496.943 628.931 434.651 606.823 416.821 627.706 c 4
 414.455 629.804 412.955 632.402 411.455 635 c 5
459.455 729 m 5
 628.269 1063.39 l 5
 653.269 1106.7 732.953 1090.71 764.13 1072.71 c 4
 764.996 1072.21 765.862 1071.71 767.594 1070.71 c 4
 795.307 1054.71 848.66 1003.12 836.589 966.214 c 4
 835.321 960.019 831.821 953.956 828.321 947.894 c 5
 624 634 l 5
 606.769 608.153 537.646 628.431 516.862 640.431 c 4
 496.943 651.931 446.651 694.823 455.821 720.706 c 4
 456.455 723.804 457.955 726.402 459.455 729 c 5
564 734 m 5
 938 755 l 5
 988 755 1014 678 1014 642 c 4
 1014 641 1014 640 1014 638 c 4
 1014 606 996 534 958 526 c 4
 952 524 945 524 938 524 c 5
 564 544 l 5
 533 546 516 616 516 640 c 4
 516 663 528 728 555 733 c 4
 558 734 561 734 564 734 c 5
468 545 m 5
 94 524 l 5
 44 524 18 601 18 637 c 4
 18 638 18 639 18 641 c 4
 18 673 36 745 74 753 c 4
 80 755 87 755 94 755 c 5
 468 735 l 5
 499 733 516 663 516 639 c 4
 516 616 504 551 477 546 c 4
 474 545 471 545 468 545 c 5
EndSplineSet
Fore
937 821 m 1
 1184 835 l 2
 1224.09 835 1238.46 785.5 1238.46 747.32 c 0
 1238.46 737.882 1237.59 729.136 1236 722 c 0
 1236 721 1236 720 1236 718 c 0
 1229 686 1196 614 1156 606 c 0
 1149 604 1142 604 1135 604 c 2
 892 617 l 1
 983 412 l 2
 985 404 986 396 984 387 c 0
 975 348 925 304 897 290 c 0
 896 289 895 289 893 288 c 0
 873 278 835 266 806 266 c 0
 788 266 773 270 766 280 c 0
 762 284 760 290 758 296 c 2
 693 516 l 1
 536 297 l 2
 520 277 494 270 469 270 c 0
 441 270 413 279 398 288 c 0
 397 288 397 289 395 290 c 0
 374.899 302.791 343.112 340.626 343.112 373.759 c 0
 343.112 376.889 343.396 379.978 344 383 c 0
 345 387 346 391 348 394 c 0
 351 401 356 407 361 413 c 2
 537 618 l 1
 291 604 l 2
 250.521 604 236.914 654.467 236.914 692.789 c 0
 236.914 701.803 237.667 710.145 239 717 c 0
 240 718 240 719 240 721 c 0
 247 753 280 825 320 833 c 0
 326 835 333 835 340 835 c 2
 585 822 l 1
 494 1028 l 2
 491 1036 491 1045 493 1053 c 0
 501 1092 551 1136 580 1151 c 0
 581 1151 582 1152 584 1153 c 0
 603 1163 641 1175 671 1175 c 0
 688 1175 703 1171 710 1160 c 0
 714 1156 716 1150 718 1144 c 2
 783 925 l 1
 940 1143 l 2
 956 1164 982 1171 1008 1171 c 0
 1036 1171 1064 1162 1078 1153 c 0
 1079 1152 1080 1152 1081 1151 c 0
 1100.91 1137.42 1133.11 1100.91 1133.11 1068.15 c 0
 1133.11 1064.71 1132.76 1061.32 1132 1058 c 0
 1131 1054 1130 1050 1128 1046 c 0
 1125 1040 1121 1034 1116 1028 c 2
 937 821 l 1
EndSplineSet
EndChar
StartChar: plus
Encoding: 11 43 11
Width: 972
Flags: HW
HStem: 520 240<68 334 574 861>
VStem: 334 240<233 520 760 1062>
Back
67.584 710.656 m 1
 374.784 710.656 l 1
 374.784 1021.95 l 1
 516.096 1021.95 l 1
 516.096 710.656 l 1
 823.296 710.656 l 1
 823.296 569.344 l 1
 516.096 569.344 l 1
 516.096 258.048 l 1
 374.784 258.048 l 1
 374.784 569.344 l 1
 67.584 569.344 l 1
 67.584 710.656 l 1
EndSplineSet
Fore
230 760 m 1
 496 760 l 1
 560 1062 l 1
 800 1062 l 1
 736 760 l 1
 1023 760 l 1
 972 520 l 1
 684 520 l 1
 623 233 l 1
 384 233 l 1
 445 520 l 1
 179 520 l 1
 230 760 l 1
EndSplineSet
EndChar
StartChar: comma
Encoding: 12 44 12
Width: 444
Flags: HW
HStem: -205 503<203 215>
VStem: 56 326<5.7 228>
Back
308.224 94.208 m 1
 308.224 -63.4883 206.848 -186.368 184.32 -221.184 c 1
 129.024 -190.464 l 1
 149.504 -159.744 200.704 -83.9678 200.704 -12.2881 c 0
 141.352 -12.2881 93.1836 34.8555 93.1836 94.208 c 0
 93.1836 153.561 141.352 201.728 200.704 201.728 c 0
 260.055 201.728 308.224 153.561 308.224 94.208 c 1
EndSplineSet
Fore
411 137 m 1
 376 -27 213 -169 159 -205 c 1
 95 -162 l 1
 108 -146 158 -74 166 -40 c 0
 166 -36 167 -32 166 -29 c 1
 122.34 -18.085 80.0901 20.323 80.0901 92.1429 c 0
 80.0901 105.862 81.6319 120.801 85 137 c 1
 102 215 192 298 278 298 c 1
 375.929 298 414.396 232.012 414.396 169.195 c 0
 414.396 158.245 413.227 147.391 411 137 c 1
EndSplineSet
EndChar
StartChar: hyphen
Encoding: 13 45 13
Width: 960
Flags: HW
HStem: 514 240<98 870>
Back
98.3037 704.512 m 1
 776.192 704.512 l 1
 776.192 563.2 l 1
 98.3037 563.2 l 1
 98.3037 704.512 l 1
EndSplineSet
Fore
258 754 m 1
 1030 754 l 1
 979 514 l 1
 207 514 l 1
 258 754 l 1
EndSplineSet
EndChar
StartChar: period
Encoding: 14 46 14
Width: 451
Flags: HW
HStem: -33 328<111 346.3>
VStem: 64 328<14 249.3>
Back
93.1836 94.208 m 0
 93.1836 153.561 141.352 201.728 200.704 201.728 c 0
 260.055 201.728 308.224 153.561 308.224 94.208 c 0
 308.224 34.8555 260.055 -13.3115 200.704 -13.3115 c 0
 141.352 -13.3115 93.1836 34.8555 93.1836 94.208 c 0
EndSplineSet
Fore
92 131 m 0
 111 222 201 295 291 295 c 0
 370.202 295 423.649 239.701 423.649 165.365 c 0
 423.649 154.293 422.463 142.798 420 131 c 0
 401 41 312 -33 221 -33 c 0
 142.536 -33 88.3943 23.2455 88.3943 97.3028 c 0
 88.3943 108.191 89.5646 119.464 92 131 c 0
EndSplineSet
EndChar
StartChar: slash
Encoding: 15 47 15
Width: 847
Flags: HW
HStem: 0 21G<-42 245>
VStem: -42 923<0 1544>
Back
124.928 0 m 1
 -32.7676 0 l 1
 684.032 1544.19 l 0
 841.729 1544.19 l 1
 124.928 0 l 1
EndSplineSet
Fore
245 0 m 1
 -42 0 l 1
 941 1544 l 0
 1209 1544 l 1
 245 0 l 1
EndSplineSet
KernsSLIFO: 15 -143 0 0
EndChar
StartChar: zero
Encoding: 16 48 16
Width: 1177
Flags: HW
HStem: -28 242<337 831> 1248 242<343 837>
VStem: 80 268<301 1211> 821 268<301 1211>
Back
90.1123 727.04 m 1
 90.1123 1136.64 268.288 1492.99 571.392 1492.99 c 1
 874.496 1492.99 1038.34 1136.64 1038.34 727.04 c 1
 1038.34 319.488 866.304 -30.7197 563.2 -30.7197 c 1
 260.096 -30.7197 90.1123 319.488 90.1123 727.04 c 1
247.808 727.04 m 1
 247.808 448.512 342.016 110.592 563.2 110.592 c 1
 786.432 110.592 880.64 448.512 880.64 727.04 c 1
 880.64 1007.62 794.624 1351.68 571.392 1351.68 c 1
 350.208 1351.68 247.808 1007.62 247.808 727.04 c 1
EndSplineSet
Fore
241 756 m 1
 338 1216 587 1490 907 1490 c 1
 1154.84 1490 1282.71 1325.64 1282.71 1037.8 c 0
 1282.71 953.997 1271.87 859.727 1250 756 c 1
 1152 297 899 -28 580 -28 c 0
 579 -28 579 -28 578 -28 c 1
 331.936 -28 207.085 163.576 207.085 461.251 c 0
 207.085 550.695 218.357 649.717 241 756 c 1
509 756 m 1
 480.801 624.407 463.912 515.148 463.912 430.032 c 0
 463.912 288.765 510.436 214 629 214 c 1
 819 214 907 406 982 756 c 1
 1008.83 882.909 1024.49 982.47 1024.49 1057.83 c 0
 1024.49 1190.31 976.107 1248 855 1248 c 1
 665 1248 583 1106 509 756 c 1
EndSplineSet
EndChar
StartChar: one
Encoding: 17 49 17
Width: 1177
Flags: HW
HStem: 0 21G<502 770> 1436 20G<505 770>
VStem: 502 268<0 1206>
Back
571.392 1275.9 m 1
 362.496 1099.78 l 1
 272.384 1196.03 l 1
 573.44 1456.13 l 1
 729.088 1456.13 l 1
 729.088 0 l 1
 571.392 0 l 1
 571.392 1275.9 l 1
EndSplineSet
Fore
754 1184 m 1
 758 1206 l 1
 485 1206 l 1
 524 1236 l 5
 814 1456 l 5
 1079 1456 l 1
 770 0 l 1
 502 0 l 1
 754 1184 l 1
EndSplineSet
EndChar
StartChar: two
Encoding: 18 50 18
Width: 1177
Flags: HW
HStem: 0 240<402 1061> 1252 240<422.7 711.3>
VStem: 759 262<831.7 1224.3>
Back
725 1176 m 5
 942 1322 l 5
240 1112 m 21
 274 1230 408 1368 570 1368 c 5
 788 1368 893.694 1219.53 893 1040 c 28
 892.165 823.919 712 704 567 592 c 4
 422 480 243 336 243 146 c 5
188 398 m 5
 412 265 l 5
719 896 m 5
 931 751 l 5
485 686 m 5
 642 488 l 5
262.144 1110.02 m 9
 122.878 1165.31 l 17
 174.08 1347.58 366.592 1495.04 569.344 1495.04 c 0
 780.288 1495.04 989.182 1359.87 989.182 1052.67 c 0
 989.182 772.096 688.697 610.386 591.872 540.672 c 0
 489.472 466.944 272.384 274.432 272.384 141.312 c 1
 1036.29 141.312 l 17
 1036.29 0 l 1
 88.0645 0 l 1
 88.0645 325.632 333.824 528.384 544.771 675.84 c 0
 652.012 750.805 835.582 849.92 835.582 1052.67 c 0
 835.582 1249.28 702.464 1353.73 569.344 1353.73 c 0
 442.368 1353.73 313.344 1271.81 262.144 1110.02 c 9
EndSplineSet
Fore
587 1076 m 9
 364 1147 l 17
 445 1344 685 1492 884 1492 c 1
 1056.75 1492 1256.64 1419.65 1256.64 1168.32 c 0
 1256.64 1130.14 1252.02 1087.82 1242 1041 c 5
 1208 880 1148 785 999 663 c 0
 820 516 538 386 453 240 c 1
 1112 240 l 17
 1061 0 l 1
 92 0 l 1
 137 210 201 359 412 534 c 0
 639 722 932 813 980 1041 c 0
 984.9 1064.03 987.239 1085.17 987.239 1104.41 c 0
 987.239 1203 925.87 1252 833 1252 c 1
 722 1252 646 1194 587 1076 c 9
EndSplineSet
EndChar
StartChar: three
Encoding: 19 51 19
Width: 1177
Flags: HW
HStem: -28 242<483.6 777.4> 651 213<433 708.9> 1253 237<458.5 702.9>
VStem: 760 252<934.4 1228.2> 831 269<271.7 588.9>
Back
763 274 m 5
 920 76 l 5
805 530 m 5
 1022 676 l 5
741 1162 m 5
 958 1308 l 5
240 1112 m 21
 274 1230 408 1368 570 1368 c 5
 777.371 1368 889.966 1223.49 893.344 1056 c 4
 897.359 856.812 745.042 760 542 760 c 5
 762 760 964 690 964 428 c 5
 964 186 772 98 598 98 c 5
 450 98 318 180 264 282 c 5
122.88 251.904 m 9xd0
 278.528 299.008 l 17
 329.728 188.416 448.512 110.592 557.056 110.592 c 1
 720.896 110.592 868.352 202.752 868.352 403.456 c 1xd0
 868.352 602.112 718.848 692.224 561.152 692.224 c 0
 483.328 692.224 l 1
 483.328 825.344 l 1
 561.152 825.344 l 0
 706.56 825.344 833.536 909.312 833.536 1085.44 c 1
 833.536 1241.09 743.424 1357.82 559.104 1357.82 c 1
 552.96 1357.82 l 0
 448.512 1357.82 342.016 1302.53 299.008 1200.13 c 9
 161.792 1263.62 l 17
 231.424 1400.83 393.216 1497.09 559.104 1497.09 c 1
 811.008 1497.09 991.232 1327.1 991.232 1085.44 c 1xe0
 991.232 890.88 860.16 792.576 796.672 753.664 c 1
 884.736 727.04 1026.05 614.4 1026.05 403.456 c 1
 1026.05 129.024 817.152 -30.7197 557.056 -30.7197 c 1
 401.408 -30.7197 200.704 71.6797 122.88 251.904 c 9xd0
EndSplineSet
Fore
162 323 m 9xe8
 435 393 l 17
 459 260 555 214 643 214 c 1
 781 214 896 308 922 429 c 1xe8
 924.996 443.174 926.425 457.029 926.425 470.45 c 0
 926.425 573.502 842.172 651 736 651 c 0
 571 651 l 1
 617 864 l 1
 759 864 l 0
 862 864 964 962 984 1054 c 0
 988.273 1073.75 990.288 1091.99 990.288 1108.76 c 0
 990.288 1205.74 922.822 1253 835 1253 c 0
 750 1253 678 1195 645 1142 c 9
 409 1208 l 17
 516 1389 676 1490 885 1490 c 1
 1084.31 1490 1256.11 1405.94 1256.11 1195.07 c 0
 1256.11 1164.72 1252.55 1131.74 1245 1096 c 5xf0
 1217 964 1135 878 1041 820 c 1
 1119.11 758.513 1202.04 674.932 1202.04 527.381 c 0
 1202.04 497.354 1198.61 464.678 1191 429 c 1
 1139 184 882 -28 592 -28 c 1
 375 -28 199 72 162 323 c 9xe8
EndSplineSet
EndChar
StartChar: four
Encoding: 20 52 20
Width: 1177
Flags: HW
HStem: 0 21G<675 944> 348 237<348 675 944 1082> 1436 20G<655 944>
VStem: 675 269<0 348> 683 261<588 1105>
Back
854.016 1445.25 m 1
 854.016 536.576 l 9
 1042.43 536.576 l 17
 1042.43 397.312 l 1
 854.016 397.312 l 1
 854.016 0 l 1
 696.32 0 l 1
 696.32 397.312 l 1
 77.8242 397.312 l 9
 684.032 1456.13 l 1
 696.32 1456.13 l 1
 854.016 1456.13 l 1
 860.16 1456.13 l 1
 854.016 1445.25 l 1
700.416 1229.67 m 1
 313.344 538.624 l 1
 700.416 538.624 l 1
 700.416 1229.67 l 1
EndSplineSet
Fore
1068 585 m 9xe8
 1206 585 l 17
 1156 348 l 1
 1018 348 l 1
 944 0 l 1
 675 0 l 1
 749 348 l 1xf0
 164 348 l 1
 208 552 l 1
 964 1456 l 1
 1253 1456 l 1
 1068 585 l 9xe8
918 1105 m 1
 473 588 l 1
 808 588 l 1
 918 1105 l 1
EndSplineSet
EndChar
StartChar: five
Encoding: 21 53 21
Width: 1177
Flags: HW
HStem: -26 242<403 793> 719 229<484.895 793> 1217 239<506 975>
VStem: 842 264<282.9 639.1>
Back
763 274 m 1
 920 76 l 1
812 590 m 1
 1029 736 l 1
306 752 m 0
 354 782 472 823.669 598 823.669 c 1
 776 823.669 973 678 973 461 c 1
 973 240 772 98 598 98 c 1
 450 98 328 180 274 282 c 1
221 461 m 0
 221 660.824 394.968 823 597 823 c 0
 799.032 823 973 660.824 973 461 c 0
 973 261.176 799.032 99 597 99 c 0
 394.968 99 221 261.176 221 461 c 0
552.96 765.952 m 1
 425.984 765.952 272.384 712.704 182.272 671.744 c 9
 282.624 1456.13 l 1
 954.368 1456.13 l 1
 954.368 1314.82 l 1
 409.6 1314.82 l 1
 354.304 868.352 l 1
 409.6 897.024 475.136 901.12 559.104 901.12 c 1
 823.296 901.12 1038.34 706.561 1038.34 417.792 c 1
 1038.34 208.896 866.304 -30.7197 587.776 -30.7197 c 1
 356.352 -30.7197 169.984 133.12 114.688 329.729 c 9
 270.336 358.4 l 17
 305.152 256 391.168 110.592 587.776 110.592 c 1
 763.904 110.592 882.688 243.712 882.688 419.84 c 1
 882.688 614.4 724.992 765.952 552.96 765.952 c 1
EndSplineSet
Fore
751 719 m 1
 657 719 602 686 571 660 c 1
 333 750 l 1
 601 1456 l 5
 1284 1456 l 1
 1234 1217 l 1
 765 1217 l 1
 648 926 l 1
 677 941 752 948 800 948 c 1
 1047.61 948 1216.52 804.085 1216.52 574.011 c 0
 1216.52 538.34 1212.46 500.598 1204 461 c 1
 1141 166 878 -26 592 -26 c 1
 278 -26 172 216 172 366 c 9
 447 412 l 17
 445 352 494 216 644 216 c 1
 794 216 911 324 940 461 c 1
 944.386 481.722 946.554 502.077 946.554 521.704 c 0
 946.554 631.835 878.312 719 751 719 c 1
EndSplineSet
EndChar
StartChar: six
Encoding: 22 54 22
Width: 1177
Flags: HW
HStem: -28 236<436.5 757.6> 660 242<520.024 750.4> 1436 20G<547.275 834>
VStem: 109 268<262.7 581.2> 798 269<288.6 590.2>
Back
387 429 m 5
 387 553 463 660 591 660 c 5
 719 660 788 547 788 433 c 5
 788 302 704 208 589 208 c 5
 457 208 387 321 387 429 c 5
677 886 m 5
 674 889 589 902 585 902 c 4
 300 902 118 703 118 429 c 5
 118 204 303 -28 591 -28 c 5
 871 -28 1056 195 1056 431 c 5
 1056 664 974 820 924 924 c 5
EndSplineSet
Fore
889 429 m 1
 893.098 447.819 895.099 466.247 895.099 483.969 c 0
 895.099 583.014 832.574 660 724 660 c 1
 596 660 493 547 469 433 c 1
 464.985 414.214 463.067 396.189 463.067 379.093 c 0
 463.067 276.973 531.492 208 630 208 c 1
 762 208 866 321 889 429 c 1
727 897 m 1
 730 900 778 902 782 902 c 0
 1026.06 902 1170.39 756.061 1170.39 542.058 c 0
 1170.39 506.165 1166.33 468.356 1158 429 c 1
 1110 204 866 -28 578 -28 c 1
 334.689 -28 191.051 140.389 191.051 339.372 c 0
 191.051 369.377 194.317 400.077 201 431 c 1
 250 664 398 820 470 924 c 1
 857 1456 l 1
 1143 1456 l 1
 727 897 l 1
EndSplineSet
EndChar
StartChar: seven
Encoding: 23 55 23
Width: 1177
Flags: HW
HStem: 0 21G<98 422> 1202 254<100 703>
Back
1069.06 1456.13 m 1
 514.048 0 l 1
 331.776 0 l 1
 847.872 1306.62 l 1
 100.352 1306.62 l 1
 100.352 1456.13 l 1
 1069.06 1456.13 l 1
EndSplineSet
Fore
1467 1456 m 1
 422 0 l 1
 98 0 l 1
 958 1202 l 1
 355 1202 l 1
 409 1456 l 1
 1467 1456 l 1
EndSplineSet
EndChar
StartChar: eight
Encoding: 24 56 24
Width: 1177
Flags: HW
HStem: -28 221<392.4 787.6> 676 247<434 735.6> 1270 219<409.9 763.5>
VStem: 68 268<249.7 615> 125 268<940.3 1218.5> 786 269<936.4 1222.4> 844 268<251 617.6>
Back
571.392 110.592 m 0xf2
 753.664 110.592 903.168 235.52 903.168 411.648 c 1
 903.168 589.824 745.472 722.944 575.488 722.944 c 1
 395.264 722.944 251.904 587.776 251.904 411.648 c 0
 251.904 229.376 399.36 110.592 571.392 110.592 c 0xf2
317.44 1107.97 m 1xec
 317.44 956.416 430.08 856.064 575.488 856.064 c 1
 718.848 856.064 831.488 952.32 831.488 1107.97 c 1
 831.488 1239.04 745.472 1355.78 573.44 1355.78 c 1
 407.552 1355.78 317.44 1234.94 317.44 1107.97 c 1xec
573.44 1497.09 m 1
 825.344 1497.09 989.184 1333.25 989.184 1107.97 c 1xec
 989.184 913.408 870.4 833.536 817.152 786.432 c 1
 894.976 727.04 1060.86 612.352 1060.86 411.648 c 1
 1060.86 147.456 833.536 -30.7197 571.392 -30.7197 c 1
 309.248 -30.7197 94.208 151.552 94.208 411.648 c 1xf2
 94.208 604.16 245.76 727.04 329.728 786.432 c 1
 266.24 843.776 159.744 917.504 159.744 1107.97 c 1
 159.744 1327.1 323.584 1497.09 573.44 1497.09 c 1
EndSplineSet
Fore
631 193 m 0xf2
 783 193 906 293 936 433 c 1
 939.602 450.049 941.315 466.506 941.315 482.269 c 0
 941.315 597.796 849.272 676 734 676 c 1
 570 676 458 573 428 433 c 0
 423.842 413.458 421.816 394.723 421.816 376.946 c 0
 421.816 266.46 500.067 193 631 193 c 0xf2
626 1095 m 1xec
 622.212 1077.66 620.377 1061.73 620.377 1047.15 c 0
 620.377 961.682 683.483 923 786 923 c 1
 898 923 993 973 1019 1095 c 1
 1022.17 1109.8 1023.79 1124.13 1023.79 1137.78 c 0
 1023.79 1214.51 972.607 1270 858 1270 c 1
 721 1270 646 1190 626 1095 c 1xec
904 1489 m 1
 1146.7 1489 1296.61 1361.41 1296.61 1174.91 c 0
 1296.61 1149.32 1293.79 1122.63 1288 1095 c 1xec
 1250 919 1103 840 1037 802 c 1
 1123.01 778.154 1212.66 662.199 1212.66 513.43 c 0
 1212.66 487.511 1209.93 460.597 1204 433 c 1
 1139 128 871 -28 580 -28 c 1
 301.628 -28 148.039 112.381 148.039 325.289 c 0
 148.039 359.422 151.986 395.419 160 433 c 1xf2
 199 614 378 778 483 802 c 1
 438.953 831.365 350.898 903.246 350.898 1030.53 c 0
 350.898 1050.62 353.092 1072.1 358 1095 c 1
 408 1332 623 1489 904 1489 c 1
EndSplineSet
EndChar
StartChar: nine
Encoding: 25 57 25
Width: 1177
Flags: HW
HStem: 0 21G<340 626.725> 554 242<423.6 647.694> 1248 236<416.4 737.5>
VStem: 107 269<865.8 1167.4> 797 268<874.8 1193.3>
Back
282.624 1052.67 m 1
 282.624 890.88 409.6 751.616 587.776 751.616 c 1
 765.952 751.616 882.688 899.072 882.688 1048.58 c 1
 882.688 1218.56 745.472 1341.44 585.729 1341.44 c 1
 401.408 1341.44 282.624 1193.98 282.624 1052.67 c 1
724.992 632.832 m 1
 679.936 614.4 647.168 602.112 587.776 602.112 c 0
 339.968 602.112 133.12 798.72 133.12 1052.67 c 1
 133.12 1259.52 311.296 1490.94 589.824 1490.94 c 1
 856.064 1490.94 1032.19 1267.71 1032.19 1050.62 c 1
 1032.19 845.824 911.36 675.84 864.256 589.824 c 1
 509.952 -55.2959 l 9
 382.976 20.4805 l 17
 724.992 632.832 l 1
EndSplineSet
Fore
594 1027 m 1
 590.124 1008.52 588.226 990.41 588.226 972.98 c 0
 588.226 873.478 650.08 796 759 796 c 1
 887 796 990 909 1014 1023 c 1
 1018.02 1041.79 1019.93 1059.81 1019.93 1076.91 c 0
 1019.93 1179.03 951.509 1248 853 1248 c 1
 721 1248 617 1135 594 1027 c 1
757 559 m 1
 753 556 706 554 702 554 c 0
 457.758 554 312.665 700.151 312.665 914.409 c 0
 312.665 950.163 316.705 987.815 325 1027 c 1
 373 1252 617 1484 905 1484 c 1
 1148.87 1484 1292.61 1314.84 1292.61 1115.26 c 0
 1292.61 1085.69 1289.45 1055.45 1283 1025 c 1
 1233 792 1085 636 1013 532 c 1
 627 0 l 1
 340 0 l 1
 757 559 l 1
EndSplineSet
EndChar
StartChar: less
Encoding: 28 60 28
Width: 864
Flags: HW
VStem: 45 750<636 1237>
Back
581.632 22.5283 m 1
 73.7275 634.88 l 1
 581.632 1234.94 l 1
 780.288 1234.94 l 1
 270.336 632.832 l 1
 780.288 22.5283 l 1
 581.632 22.5283 l 1
EndSplineSet
Fore
468 24 m 1
 180 636 l 1
 726 1237 l 1
 1058 1237 l 1
 511 633 l 1
 798 24 l 1
 468 24 l 1
EndSplineSet
EndChar
StartChar: equal
Encoding: 29 61 29
Width: 907
Flags: HW
HStem: 309 240<55 856> 676 239<55 856>
Back
55.2959 499.712 m 1
 856.064 499.712 l 1
 856.064 358.4 l 1
 55.2959 358.4 l 1
 55.2959 499.712 l 1
55.2959 866.304 m 1
 856.064 866.304 l 1
 856.064 724.992 l 1
 55.2959 724.992 l 1
 55.2959 866.304 l 1
EndSplineSet
Fore
172 549 m 1
 973 549 l 1
 922 309 l 1
 121 309 l 1
 172 549 l 1
249 915 m 1
 1050 915 l 1
 1000 676 l 1
 199 676 l 1
 249 915 l 1
EndSplineSet
EndChar
StartChar: greater
Encoding: 30 62 30
Width: 864
Flags: HW
VStem: 55 752<20 636>
Back
280.576 20.4805 m 1
 81.9199 20.4805 l 1
 589.824 632.832 l 1
 81.9199 1234.94 l 1
 280.576 1234.94 l 1
 786.432 634.88 l 1
 280.576 20.4805 l 1
EndSplineSet
Fore
397 20 m 1
 59 20 l 1
 611 632 l 1
 318 1235 l 1
 657 1235 l 1
 942 636 l 1
 397 20 l 1
EndSplineSet
EndChar
StartChar: question
Encoding: 31 63 31
Width: 1034
Flags: HW
HStem: -33 328<390 625.3> 1253 244<362.3 626.2>
VStem: 343 328<14 249.3> 371 268<399 773.1> 702 281<787.2 1247.4>
Back
264.745 1093.14 m 0
 264.745 1199.21 373.787 1289.56 508.14 1289.56 c 4
 642.494 1289.56 751.534 1199.21 751.534 1093.14 c 0
 751.534 987.072 642.494 900.987 508.14 900.987 c 0
 373.787 900.987 264.745 987.072 264.745 1093.14 c 0
51.2402 1093.14 m 0
 51.2402 1314.71 254.018 1494.53 503.869 1494.53 c 0
 753.72 1494.53 956.498 1314.71 956.498 1093.14 c 0
 956.498 871.573 753.72 691.753 503.869 691.753 c 0
 254.018 691.753 51.2402 871.573 51.2402 1093.14 c 0
EndSplineSet
Fore
752 530 m 1xd8
 724 399 l 1
 456 399 l 1
 497 594 l 0
 549 836 884 858 935 1094 c 1
 937.735 1106.91 939.022 1118.89 939.022 1130.01 c 0
 939.022 1220.48 853.718 1253 770 1253 c 1
 661 1253 573 1171 542 1069 c 1
 283 1110 l 1
 354 1327 556 1497 818 1497 c 1
 1035.51 1497 1225.43 1390.6 1225.43 1181.99 c 0
 1225.43 1155.62 1222.4 1127.62 1216 1098 c 1
 1138 727 791 717 752 530 c 1xd8
EndSplineSet
Refer: 14 46 N 1 0 0 1 279 0 2
EndChar
StartChar: at
Encoding: 32 64 32
Width: 1737
Flags: HW
HStem: -33 166<449.9 1057> 346 203<746.3 1012.8> 373 219<1284.7 1419.9> 905 189<751.5 989.4> 1323 172<449.9 1298.8>
VStem: 79 200<301.3 1154.1> 472 219<593.2 874> 1045 213<652.4 868.5> 1453 207<636.5 1160.4>
Back
1165.31 212.992 m 1xbf80
 1243.14 110.592 l 17
 1116.16 18.4316 962.56 -34.8164 794.624 -34.8164 c 0
 370.688 -34.8164 30.7197 307.2 30.7197 731.136 c 0
 30.7197 1153.02 370.688 1495.04 794.624 1495.04 c 0
 1216.51 1495.04 1558.53 1153.02 1558.53 731.136 c 0
 1558.53 555.008 1411.07 417.792 1273.86 417.792 c 0xbf80
 1200.13 417.792 1112.06 460.8 1058.82 518.145 c 1
 999.424 438.272 901.12 389.12 794.624 389.12 c 0xdf80
 606.208 389.12 452.608 542.72 452.608 731.136 c 0
 452.608 917.504 606.208 1071.1 794.624 1071.1 c 0
 983.04 1071.1 1118.21 909.312 1118.21 731.136 c 0
 1118.21 645.12 1185.79 546.816 1267.71 546.816 c 0
 1351.68 546.816 1429.5 626.688 1429.5 731.136 c 0
 1429.5 1071.1 1153.02 1368.06 794.624 1368.06 c 0
 436.224 1368.06 157.696 1071.1 157.696 727.04 c 0
 157.696 385.024 436.224 92.1602 794.624 92.1602 c 0
 921.6 92.1602 1069.06 145.408 1165.31 212.992 c 1xbf80
581.632 731.136 m 0
 581.632 606.208 679.936 516.096 794.624 516.096 c 0xdf80
 917.504 516.096 993.28 614.4 993.28 731.136 c 0
 993.28 841.729 897.024 946.176 794.624 946.176 c 0
 684.032 946.176 581.632 849.92 581.632 731.136 c 0
EndSplineSet
Fore
1279 260 m 1xbf80
 1360 113 l 17
 1210 21 1069 -33 868 -33 c 0
 481.797 -33 216.985 221.232 216.985 572.932 c 0
 216.985 623.744 222.512 676.591 234 731 c 0
 326 1161 751 1495 1193 1495 c 0
 1578.06 1495 1838.29 1249.16 1838.29 910.285 c 0
 1838.29 861.936 1832.99 811.693 1822 760 c 0
 1775 542 1587 373 1434 373 c 0xbf80
 1365 373 1291 412 1259 500 c 1
 1173 388 1061 346 949 346 c 0xdf80
 754.287 346 618.808 479.086 618.808 654.843 c 0
 618.808 679.474 621.469 704.942 627 731 c 0
 670 930 886 1094 1108 1094 c 0
 1304.22 1094 1423.79 965.475 1423.79 810.616 c 0
 1423.79 789.481 1421.56 767.856 1417 746 c 0
 1413.76 731.41 1412.2 716.41 1412.2 701.765 c 0
 1412.2 644.135 1436.33 592 1477 592 c 0
 1530 592 1594 665 1615 760 c 0
 1623.3 799.351 1627.32 837.837 1627.32 875.037 c 0
 1627.32 1129 1440.35 1323 1156 1323 c 0
 829 1323 503 1056 434 729 c 0
 424.967 686.544 420.63 645.121 420.63 605.171 c 0
 420.63 335.537 618.197 133 903 133 c 0
 1043 133 1196 199 1279 260 c 1xbf80
846 731 m 0
 843.223 717.621 841.896 704.72 841.896 692.389 c 0
 841.896 607.026 905.496 549 992 549 c 0xdf80
 1098 549 1181 639 1203 745 c 0
 1205.57 756.647 1206.8 767.842 1206.8 778.522 c 0
 1206.8 854.96 1144.21 905 1067 905 c 0
 972 905 870 841 846 731 c 0
EndSplineSet
EndChar
StartChar: m
Encoding: 77 109 33
Width: 1575
Flags: HWO
HStem: 0 21G<119 377 666 924 1212 1470> 868 234<477 652.3 1013 1198>
VStem: 119 258<0 800.3 915 1073> 666 258<0 740> 1212 258<0 800.3>
Back
346 862 m 5
 390.825 954.286 506 1102 636 1102 c 4
 766 1102 924 1018 924 539 c 4
 924 0 l 5
 666 0 l 4
 666 539 l 4
 666 740 622 868 522 868 c 5
 422 868 378 740 378 539 c 4
 378 0 l 5
EndSplineSet
Fore
924 0 m 1
 666 0 l 0
 781 539 l 0
 796.398 612.689 805.747 676.566 805.747 727.922 c 0
 805.747 816.649 777.84 868 705 868 c 1
 589 868 534 740 492 539 c 0
 377 0 l 9
 119 0 l 1
 347 1073 l 1
 605 1073 l 1
 571 915 l 17
 628 986 750 1102 880 1102 c 0
 1083 1102 1072 881 1075 862 c 1
 1140 954 1286 1102 1416 1102 c 0
 1549.82 1102 1631.58 1011.37 1631.58 834.897 c 0
 1631.58 785.859 1625.26 730.192 1612 668 c 0
 1470 0 l 1
 1212 0 l 0
 1327 539 l 0
 1342.44 612.884 1351.8 676.904 1351.8 728.33 c 0
 1351.8 816.806 1324.1 868 1252 868 c 1
 1138 868 1081 740 1039 539 c 0
 924 0 l 1
EndSplineSet
EndChar
StartChar: n
Encoding: 78 110 34
Width: 1121
Flags: HW
HStem: 0 21G<119 377 756 1014> 867 235<515.9 694>
VStem: 119 258<0 810 912 1073> 756 258<0 894.5>
Back
270.336 0 m 9
 118.784 0 l 1
 118.784 1073.15 l 1
 270.336 1073.15 l 1
 270.336 921.6 l 17
 339.968 999.424 417.792 1095.68 563.2 1095.68 c 0
 819.2 1095.68 905.216 880.64 905.216 622.592 c 0
 905.216 0 l 1
 753.664 0 l 0
 753.664 618.496 l 0
 753.664 790.528 684.032 958.464 573.44 958.464 c 1
 446.464 958.464 270.336 831.488 270.336 659.456 c 0
 270.336 0 l 9
EndSplineSet
Fore
377 0 m 9
 119 0 l 1
 347 1074 l 1
 605 1074 l 1
 571 912 l 17
 650 1016 792 1102 934 1102 c 0
 1053.38 1102 1170.67 998.158 1170.67 798.038 c 0
 1170.67 758.442 1166.08 715.076 1156 668 c 1
 1014 0 l 1
 756 0 l 0
 870 537 l 2
 885.789 610.595 892.985 668.433 892.985 713.678 c 0
 892.985 837.499 839.097 867 760 867 c 0
 652 867 549 810 491 536 c 2
 377 0 l 9
EndSplineSet
EndChar
StartChar: o
Encoding: 79 111 35
Width: 1105
Flags: HMW
Back
92.1602 536.576 m 0
 92.1602 851.968 241.664 1093.63 507.904 1093.63 c 0
 774.144 1093.63 923.648 851.968 923.648 536.576 c 0
 923.648 221.184 774.144 -28.6719 507.904 -28.6719 c 1
 241.664 -28.6719 92.1602 221.184 92.1602 536.576 c 0
245.76 536.576 m 0
 245.76 339.968 327.68 106.496 507.904 106.496 c 0
 700.416 106.496 770.048 339.968 770.048 536.576 c 0
 770.048 733.184 688.128 958.464 507.904 958.464 c 0
 327.68 958.464 245.76 733.184 245.76 536.576 c 0
EndSplineSet
Fore
458 537 m 0
 446.674 483.253 441.539 437.605 441.539 399 c 0
 441.539 250.138 517.888 206 610 206 c 0
 725 206 847 276 902 537 c 1
 913.536 590.767 918.749 636.344 918.749 674.823 c 0
 918.749 823.131 841.309 866 750 866 c 1
 634 866 514 798 458 537 c 0
206 537 m 0
 279 879 495 1100 799 1100 c 0
 1045.84 1100 1170.86 955.242 1170.86 718.739 c 0
 1170.86 663.021 1163.92 602.21 1150 537 c 0
 1077 195 864 -29 559 -29 c 1
 312.539 -29 185.045 114.287 185.045 353.968 c 0
 185.045 409.924 191.994 471.133 206 537 c 0
EndSplineSet
KernsSLIFO: 42 -26 0 0 44 -53 0 0
EndChar
StartChar: p
Encoding: 80 112 36
Width: 1132
Flags: HW
HStem: -28 234<533.2 713.2> 866 234<533.2 717.1>
VStem: 119 258<-426 157 917 1073> 803 260<245.8 855.5>
Back
270.336 -425.984 m 17
 118.784 -425.984 l 1
 118.784 1073.15 l 1
 270.336 1073.15 l 1
 270.336 899.072 l 17
 327.68 995.328 405.504 1091.58 550.912 1091.58 c 0
 802.816 1091.58 923.648 823.296 923.648 540.672 c 0
 923.648 258.048 835.584 -28.6719 512 -28.6719 c 1
 348.16 -28.6719 270.336 139.264 270.336 139.264 c 0
 270.336 139.264 270.336 -205.537 270.336 -425.984 c 17
770.048 536.576 m 0
 770.048 770.048 688.128 956.416 561.152 956.416 c 1
 421.888 956.416 266.24 794.624 266.24 536.576 c 1
 266.24 245.76 409.6 106.496 522.24 106.496 c 0
 671.744 106.496 770.048 262.144 770.048 536.576 c 0
EndSplineSet
Fore
286 -426 m 17
 28 -426 l 1
 347 1073 l 1
 605 1073 l 1
 572 917 l 17
 664 1026 802 1100 918 1100 c 0
 1117.89 1100 1200.26 948.65 1200.26 743.183 c 0
 1200.26 677.286 1191.78 605.822 1176 532 c 0
 1111 228 940 -28 678 -28 c 1
 562 -28 456 48 410 157 c 1
 286 -426 l 17
917 537 m 0
 927.044 584.322 931.529 625.637 931.529 661.501 c 0
 931.529 811.315 853.264 866 775 866 c 1
 678 866 537 790 483 537 c 1
 473.076 490.138 468.657 449.321 468.657 413.91 c 0
 468.657 256.633 555.826 206 635 206 c 0
 729 206 870 313 917 537 c 0
EndSplineSet
EndChar
StartChar: q
Encoding: 81 113 37
Width: 1132
Flags: HW
HStem: -28 234<423.8 603.8> 866 234<419.9 603.8>
VStem: 74 260<245.8 855.5> 760 258<-209.8 157 917 1073>
Back
233.472 536.576 m 0
 233.472 262.144 335.872 106.496 485.376 106.496 c 0
 598.016 106.496 741.376 245.76 741.376 536.576 c 1
 741.376 794.624 585.729 956.416 446.464 956.416 c 1
 319.488 956.416 233.472 770.048 233.472 536.576 c 0
888.832 -198.656 m 2
 888.832 -278.528 917.504 -313.344 1007.62 -313.344 c 1
 1007.62 -448.512 l 1
 837.632 -448.512 737.28 -380.928 737.28 -204.8 c 0
 737.28 -199.234 737.28 133.698 737.28 139.264 c 1
 737.28 139.264 659.456 -28.6719 495.616 -28.6719 c 1
 172.032 -28.6719 83.9678 258.048 83.9678 540.672 c 0
 83.9678 823.296 204.8 1091.58 456.704 1091.58 c 0
 602.112 1091.58 675.84 995.328 737.28 899.072 c 9
 737.28 1073.15 l 1
 888.832 1073.15 l 1
 888.832 -198.656 l 2
EndSplineSet
Fore
730 -141 m 0
 793 157 l 1
 701 48 563 -28 447 -28 c 1
 247.401 -28 163.298 120.577 163.298 325.765 c 0
 163.298 389.913 171.519 459.595 187 532 c 0
 252 836 423 1100 687 1100 c 0
 803 1100 909 1026 955 917 c 9
 988 1073 l 1
 1246 1073 l 1
 989 -137 l 0
 986.566 -148.36 985.119 -158.156 985.119 -166.555 c 0
 985.119 -199.562 1007.46 -211 1080 -211 c 1
 1030 -449 l 1
 828.634 -449 719.671 -384.029 719.671 -230.781 c 0
 719.671 -203.662 723.084 -173.778 730 -141 c 0
448 537 m 0
 439.436 496.185 435.587 459.254 435.587 426.148 c 0
 435.587 277.559 513.128 206 590 206 c 0
 687 206 828 282 882 537 c 1
 891.924 583.495 896.343 624.012 896.343 659.178 c 0
 896.343 815.367 809.174 866 730 866 c 1
 633 866 500 782 448 537 c 0
EndSplineSet
EndChar
StartChar: r
Encoding: 82 114 38
Width: 858
Flags: HW
HStem: 0 21G<122 380> 1053 20G<122 380> 1082 20G<589 663.5>
VStem: 122 258<0 731.1 912 1073>
Back
638.976 907.264 m 1
 616.448 921.6 544.768 948.224 509.952 948.224 c 1
 393.216 948.224 270.336 786.432 270.336 677.888 c 2
 270.336 0 l 17
 118.784 0 l 1
 118.784 1073.15 l 1
 270.336 1073.15 l 1
 270.336 913.408 l 17
 323.584 1007.62 419.84 1085.44 499.712 1085.44 c 0
 561.152 1085.44 655.36 1060.86 704.512 1030.14 c 1
 638.976 907.264 l 1
EndSplineSet
Fore
908 807 m 1
 887 820 811 868 764 868 c 1
 609 868 527 690 498 553 c 1
 380 0 l 17
 122 0 l 1
 350 1073 l 1
 608 1073 l 1
 574 912 l 17
 654 1019 783 1102 863 1102 c 0
 932 1102 1003 1060 1047 1008 c 1
 908 807 l 1
EndSplineSet
KernsSLIFO: 124 -33 0 0
EndChar
StartChar: s
Encoding: 83 115 39
Width: 958
Flags: HW
HStem: -29 230<377.7 588.3> 870 230<409.6 586.4>
VStem: 124 248<662.058 879.158> 637 248<185.8 418.5>
Back
458.752 491.52 m 0
 299.893 543.455 110.592 614.4 110.592 798.72 c 0
 110.592 983.04 258.048 1097.73 458.752 1097.73 c 0
 667.648 1097.73 790.528 978.944 813.056 870.4 c 1
 671.744 841.729 l 0
 649.216 911.36 585.729 962.561 460.8 962.561 c 0
 315.392 962.561 264.192 897.024 264.192 804.864 c 0
 264.192 692.224 393.216 661.504 460.8 636.928 c 0
 611.789 582.023 829.44 499.712 829.44 296.96 c 0
 829.44 86.0156 675.84 -28.6719 462.848 -28.6719 c 0
 249.856 -28.6719 126.976 69.6318 86.0156 217.088 c 1
 227.328 243.712 l 1
 249.856 155.648 327.68 106.496 458.752 106.496 c 0
 598.016 106.496 675.84 172.032 675.84 296.96 c 0
 675.84 401.408 565.248 456.704 458.752 491.52 c 0
EndSplineSet
Fore
446 491 m 0
 345.253 550.969 284.144 598.79 284.144 711.655 c 0
 284.144 739.945 287.983 772.321 296 810 c 0
 334 988 504 1100 728 1100 c 0
 943.726 1100 1044.44 956.239 1044.44 816.993 c 0
 1044.44 811.653 1044.3 806.319 1044 801 c 1
 795 758 l 1
 795.156 761.659 795.233 765.203 795.233 768.636 c 0
 795.233 853.374 748.353 870 683 870 c 0
 615 870 554 857 538 783 c 0
 536.727 776.768 536.109 770.927 536.109 765.429 c 0
 536.109 688.864 655.85 678.64 793 604 c 0
 898.007 546.724 954.285 479.322 954.285 366.556 c 0
 954.285 337.568 950.566 305.582 943 270 c 0
 905 94 694 -29 479 -29 c 0
 259 -29 141 98 140 290 c 1
 380 329 l 1
 379.936 327.21 379.904 325.438 379.904 323.684 c 0
 379.904 243.145 446.726 201 526 201 c 0
 607 201 682 211 700 295 c 0
 701.199 300.694 701.776 306.15 701.776 311.393 c 0
 701.776 393.63 559.748 423.315 446 491 c 0
EndSplineSet
EndChar
StartChar: t
Encoding: 84 116 40
Width: 706
Flags: HW
HStem: -15 21G<582 621> 844 229<72 213 471 625>
VStem: 213 258<212 844 1073 1323>
Back
253.952 937.984 m 0
 112.64 937.984 l 1
 112.64 1073.15 l 1
 253.952 1073.15 l 0
 253.952 1323.01 l 1
 405.504 1323.01 l 0
 405.504 1073.15 l 0
 602.112 1073.15 l 1
 602.112 937.984 l 1
 405.504 937.984 l 0
 405.504 215.04 l 0
 405.504 110.592 477.184 98.3037 522.24 98.3037 c 1
 591.872 98.3037 l 1
 591.872 -28.6719 l 1
 522.24 -28.6719 l 1
 317.44 -28.6719 253.952 49.1523 253.952 210.944 c 1
 253.952 937.984 l 0
EndSplineSet
Fore
392 844 m 0
 251 844 l 1
 300 1073 l 1
 441 1073 l 0
 494 1323 l 1
 752 1323 l 0
 699 1073 l 0
 853 1073 l 1
 804 844 l 1
 650 844 l 0
 534 297 l 0
 531.869 286.937 530.887 277.925 530.887 269.857 c 0
 530.887 209.772 585.327 202 625 202 c 1
 664 202 l 1
 618 -15 l 1
 579 -15 l 1
 346.738 -15 262.207 50.9512 262.207 187.138 c 0
 262.207 218.648 266.733 253.918 275 293 c 1
 392 844 l 0
EndSplineSet
EndChar
StartChar: u
Encoding: 85 117 41
Width: 1112
Flags: HW
HStem: -29 235<428 606.1> 1053 20G<108 366 744 1003>
VStem: 108 258<178.5 1073> 745 258<0 161 180.8 1073>
Back
743.424 1073.15 m 9
 894.976 1073.15 l 1
 894.976 0 l 1
 743.424 0 l 1
 743.424 139.264 l 17
 704.512 79.8721 636.928 -22.5283 491.521 -22.5283 c 0
 235.52 -22.5283 108.544 192.512 108.544 450.56 c 0
 108.544 1073.15 l 1
 260.096 1073.15 l 0
 260.096 454.656 l 0
 260.096 282.624 370.688 114.688 481.28 114.688 c 1
 608.256 114.688 743.424 241.664 743.424 413.696 c 0
 743.424 1073.15 l 9
EndSplineSet
Fore
1003 0 m 2
 745 0 l 2
 779 161 l 17
 700 57 559 -29 422 -29 c 0
 278.117 -29 192.078 74.8928 192.078 286.466 c 0
 192.078 357.221 201.7 440.018 222 535 c 1
 336 1073 l 1
 594 1073 l 0
 480 536 l 2
 466.634 473.7 460.863 422.691 460.863 381.054 c 0
 460.863 238.903 528.124 206 590 206 c 0
 670 206 800 263 858 537 c 2
 972 1073 l 9
 1231 1073 l 1
 1003 0 l 2
EndSplineSet
EndChar
StartChar: v
Encoding: 86 118 42
Width: 1060
Flags: HW
HStem: 0 21G<411 624> 1053 20G<72 343 716 963>
VStem: 72 891<1073 1073>
Back
436.224 0 m 1
 71.6797 1073.15 l 1
 231.424 1073.15 l 1
 512 194.56 l 1
 798.72 1073.15 l 1
 956.416 1073.15 l 1
 587.776 0 l 1
 436.224 0 l 1
EndSplineSet
Fore
411 0 m 1
 300 1073 l 1
 571 1073 l 1
 605 387 l 1
 944 1073 l 1
 1191 1073 l 1
 624 0 l 1
 411 0 l 1
EndSplineSet
KernsSLIFO: 124 -45 0 0
EndChar
StartChar: w
Encoding: 87 119 43
Width: 1449
Flags: HW
HStem: 0 21G<372 573 851 1070> 1053 20G<57 312 1142 1385>
Back
688.128 829.44 m 1
 460.8 0 l 1
 344.064 0 l 1
 57.3438 1073.15 l 1
 206.848 1073.15 l 1
 403.456 282.624 l 1
 616.448 1064.96 l 1
 759.808 1064.96 l 17
 972.8 282.624 l 1
 1169.41 1073.15 l 17
 1318.91 1073.15 l 1
 1032.19 0 l 1
 909.312 0 l 1
 688.128 829.44 l 1
EndSplineSet
Fore
856 664 m 1
 573 0 l 1
 372 0 l 1
 285 1073 l 1
 540 1073 l 1
 566 404 l 1
 839 1077 l 1
 1071 1077 l 17
 1059 407 l 1
 1370 1073 l 17
 1613 1073 l 1
 1070 0 l 1
 851 0 l 1
 856 664 l 1
EndSplineSet
EndChar
StartChar: x
Encoding: 88 120 44
Width: 1054
Flags: HW
HStem: 0 21G<27 334 714 1021> 1053 20G<45 335 712 1026>
VStem: 27 999<0 1073>
Back
860.16 0 m 1
 690.176 0 l 9
 448.512 440.32 l 1
 219.136 0 l 1
 43.0078 0 l 9
 356.352 538.624 l 1
 45.0557 1073.15 l 9
 215.04 1073.15 l 1
 448.512 638.976 l 0
 681.984 1073.15 l 1
 851.968 1073.15 l 1
 540.672 542.72 l 0
 860.16 0 l 1
EndSplineSet
Fore
1021 0 m 1
 714 0 l 9
 595 335 l 1
 334 0 l 1
 27 0 l 9
 482 536 l 1
 273 1073 l 9
 563 1073 l 1
 683 743 l 0
 940 1073 l 1
 1254 1073 l 1
 796 545 l 0
 1021 0 l 1
EndSplineSet
EndChar
StartChar: y
Encoding: 89 121 45
Width: 1106
Flags: HW
HStem: -465 232<407.3 690.7> -29 235<428 606.1> 1053 20G<108 366 744 1003>
VStem: 108 258<178.5 1073> 745 258<-200.7 161 180.8 1073>
Back
283.376 -183.838 m 0
 325.527 -261.986 409.975 -313.344 501.76 -313.344 c 0
 626.688 -313.344 743.424 -225.28 743.424 -32.7676 c 0
 743.424 145.408 l 17
 708.608 83.9678 636.928 -16.3838 491.521 -16.3838 c 0
 235.52 -16.3838 108.544 198.656 108.544 456.704 c 0
 108.544 1073.15 l 1
 260.096 1073.15 l 0
 260.096 460.8 l 0
 260.096 288.768 370.688 120.832 481.28 120.832 c 1
 608.256 120.832 743.424 247.808 743.424 419.84 c 0
 743.424 1073.15 l 9
 894.976 1073.15 l 1
 894.976 425.984 l 1
 894.976 -18.4316 l 2
 894.976 -290.816 712.704 -448.512 509.952 -448.512 c 1
 328.475 -448.512 217.541 -351.877 160.556 -247.556 c 1
 283.376 -183.838 l 0
EndSplineSet
Fore
997 -29 m 2
 951 -246 671 -465 456 -465 c 1
 245 -465 124 -348 92 -224 c 1
 320 -112 l 0
 329 -182 390 -233 499 -233 c 0
 608 -233 709 -168 732 -59 c 1
 779 161 l 17
 700 57 559 -29 422 -29 c 0
 278.117 -29 192.078 74.8928 192.078 286.466 c 0
 192.078 357.221 201.7 440.018 222 535 c 1
 336 1073 l 1
 594 1073 l 0
 480 536 l 2
 466.634 473.7 460.863 422.691 460.863 381.054 c 0
 460.863 238.903 528.124 206 590 206 c 0
 670 206 800 263 858 537 c 2
 972 1073 l 9
 1231 1073 l 1
 1009 29 l 1
 997 -29 l 2
EndSplineSet
EndChar
StartChar: z
Encoding: 90 122 46
Width: 1005
Flags: HW
HStem: 0 240<483 889> 834 239<115 502>
VStem: 66 855<0 1073>
Back
331.776 141.312 m 1
 866.304 141.312 l 1
 866.304 0 l 1
 79.8721 0 l 1
 624.64 931.84 l 2
 100.352 931.84 l 1
 100.352 1073.15 l 1
 876.544 1073.15 l 1
 331.776 141.312 l 1
EndSplineSet
Fore
534 240 m 1
 940 240 l 1
 889 0 l 1
 66 0 l 1
 679 834 l 2
 292 834 l 1
 343 1073 l 1
 1149 1073 l 1
 534 240 l 1
EndSplineSet
EndChar
StartChar: Oslash
Encoding: 151 216 53
Width: 2478
Flags: HW
HStem: -29 242<640.457 1058.8> 1249 240<363.5 786.865>
VStem: 100 281<626.144 1031.2> 1047 282<480 893.883>
Back
533.795 -28.6719 m 5
 247.128 -28.6719 l 5
 901.745 1515.5 l 4
 1169.41 1515.52 l 5
 533.795 -28.6719 l 5
1046.53 753.664 m 0
 1046.53 980.853 972.04 1249.28 714.752 1249.28 c 0
 459.416 1249.28 382.976 980.853 382.976 753.664 c 1
 382.976 506.839 461.042 212.992 714.752 212.992 c 1
 970.412 212.992 1046.53 506.839 1046.53 753.664 c 0
100.352 753.664 m 1
 100.352 1074.34 264.192 1488.9 714.752 1488.9 c 1
 1167.39 1488.9 1329.15 1074.34 1329.15 753.664 c 1
 1329.15 412.53 1165.23 -28.6719 714.752 -28.6719 c 1
 266.349 -28.6719 100.352 412.53 100.352 753.664 c 1
EndSplineSet
Fore
544 -6 m 1
 526 -29 l 1
 242 -29 l 1
 344 135 l 1
 267.082 233.02 236.034 389.42 236.034 535.447 c 0
 236.034 603.946 242.866 670.163 255 727 c 1
 333 1096 586 1489 1037 1489 c 1
 1093 1489 1154 1482 1193 1466 c 1
 1206 1493 l 0
 1478 1493 l 1
 1387 1348 l 1
 1476.51 1246.82 1510.49 1110.29 1510.49 965.442 c 0
 1510.49 886.972 1500.51 806.06 1484 727 c 1
 1427 463 1184 -29 709 -29 c 1
 651 -29 592 -20 544 -6 c 1
684 223 m 1
 711 219 716 213 758 213 c 1
 1024 213 1161 537 1202 727 c 0
 1217.35 801.392 1226.78 867.766 1226.78 932.504 c 0
 1226.78 977.414 1222.24 1021.54 1212 1067 c 1
 684 223 l 1
531 426 m 1
 1048 1241 l 1
 1028 1243 1023 1249 986 1249 c 1
 711 1249 585 961 536 727 c 1
 527.487 687.478 520.084 614.312 520.084 545.044 c 0
 520.084 500.391 523.161 457.357 531 426 c 1
EndSplineSet
EndChar
StartChar: Thorn
Encoding: 157 222 57
Width: 1384
Flags: HW
HStem: 0 21G<135 403> 287 239<403 652.6> 961 238<403 604.5> 1436 20G<135 403>
VStem: 135 268<0 287 526 961 1199 1456> 805 267<514.7 997>
Back
292.454 477.103 m 1
 562.954 477.103 859.341 530.35 859.341 749.731 c 1
 859.341 984.023 511.836 1009.58 292.454 1009.58 c 1
 292.454 477.103 l 1
135.168 1456.13 m 0
 292.454 1456.13 l 1
 292.454 1150.16 l 1
 667.32 1150.16 1016.63 1067.09 1016.63 749.731 c 0
 1016.63 406.814 660.931 336.527 292.454 336.527 c 1
 292.454 0 l 1
 135.168 0 l 1
 135.168 1456.13 l 0
EndSplineSet
Fore
515 526 m 1
 707 526 926 569 964 750 c 1
 967.114 764.433 968.59 777.89 968.59 790.438 c 0
 968.59 943.069 750.226 961 607 961 c 1
 515 526 l 1
444 1456 m 0
 712 1456 l 1
 658 1199 l 1
 967.612 1199 1242.79 1124.53 1242.79 853.789 c 0
 1242.79 821.97 1238.99 787.439 1231 750 c 0
 1150 365 804 287 464 287 c 1
 403 0 l 1
 135 0 l 1
 444 1456 l 0
EndSplineSet
EndChar
StartChar: germandbls
Encoding: 158 223 58
Width: 1261
Flags: HW
HStem: -29 224<534.5 815.3> 649 195<535 702.7> 1294 234<453.106 820.5>
VStem: 848 254<832.5 1271.9> 907 251<204 571.9>
Back
164.188 1151.75 m 1
 252.784 1347.93 389.775 1478.72 645.018 1478.72 c 1
 893.932 1478.72 1098.42 1328.95 1089.99 1073.71 c 1
 1089.99 879.637 889.713 778.384 769.475 746.742 c 1
 883.385 719.319 1106.86 601.19 1106.86 398.685 c 1
 1106.86 120.238 891.822 -29.5322 600.72 -29.5322 c 1
 535.327 -29.5322 482.591 -10.5479 415.089 23.2041 c 9
 505.795 145.552 l 17
 539.546 132.894 571.188 109.69 600.72 109.69 c 1
 796.897 109.69 959.447 196.178 959.447 398.685 c 1
 959.447 548.454 737.833 679.24 541.655 679.24 c 1
 505.795 679.24 l 2
 493.138 679.24 480.481 679.24 463.605 672.911 c 1
 463.605 824.791 l 1
 478.372 820.572 488.919 820.572 499.466 820.572 c 2
 541.655 820.572 l 1
 712.52 820.572 940.462 917.606 940.462 1073.71 c 1
 940.462 1259.34 826.43 1341.6 645.018 1341.6 c 1
 440.402 1341.6 349.573 1238.24 305.274 1105.35 c 1
 235.663 902.84 248.32 310.088 229.335 0 c 1
 81.9199 0 l 1
 113.562 360.714 88.248 993.546 164.188 1151.75 c 1
EndSplineSet
Fore
427 1260 m 1xf0
 549 1427 722 1528 970 1528 c 1
 1207.72 1528 1342.35 1390.07 1342.35 1185.34 c 0
 1342.35 1149.78 1338.29 1112.21 1330 1073 c 1xf0
 1289 881 1171 792 1096 767 c 1
 1153.4 755.005 1251.91 643.181 1251.91 483.096 c 0
 1251.91 456.333 1249.16 428.22 1243 399 c 1
 1182 111 933 -29 612 -29 c 1
 526 -29 452 -20 420 23 c 9
 561 226 l 17
 575 210 589 195 634 195 c 1
 805 195 960 249 992 399 c 1xe8
 994.823 412.411 996.223 425.659 996.223 438.642 c 0
 996.223 554.406 884.909 649 679 649 c 1
 644 649 l 2
 654 649 645 651 668 694 c 1
 714 844 l 1
 843 844 1037 888 1076 1073 c 0
 1082.3 1102.21 1085.43 1128.32 1085.43 1151.45 c 0
 1085.43 1249.49 1029.23 1294 920 1294 c 1
 772 1294 684 1230 621 1140 c 0
 530 1008 385 159 295 0 c 1
 62 0 l 1
 163 159 288 1074 427 1260 c 1xf0
EndSplineSet
EndChar
StartChar: ae
Encoding: 165 230 63
Width: 1764
Flags: HW
Back
208 294 m 0xb8
 134 294 110 236 110 173 c 0
 110 110 134 52 208 52 c 0
 270 52 306 108 306 173 c 1
 306 238 270 294 208 294 c 0xb8
347.172 444.129 m 1
 381.085 499.773 413.985 534 484 534 c 0
 614 534 667 416 667 262 c 0
 667 251.234 665.469 240.156 665.469 229 c 1
 377.297 229 l 1xd8
 377.297 182 389 52 484 52 c 0
 530.016 52 542.375 79.3281 563.422 118.484 c 0
 628.344 91.6094 l 0
 594.984 27.0625 559.422 -14 484 -14 c 0
 405.844 -14 380.021 27.0371 346 80 c 1
 320 34 302 -14 208 -14 c 0
 98 -14 36 68 36 173 c 0
 36 278 108 360 208 360 c 0
 270.223 360 289 337 308 309 c 1
 308.915 317.082 305.915 330.206 307.264 337.988 c 1
 307.264 409.284 281.354 466 210 466 c 0
 164 466 142 450 120 428 c 9
 105.18 447.5 82 478 82 478 c 0
 116 506 140 532 210 532 c 0
 273.279 532 313.223 501.687 347.172 444.129 c 1
377.364 295 m 1
 591.344 295 l 1
 582.672 381.516 562.031 468 484 468 c 0
 404 468 379 369 377.364 295 c 1
EndSplineSet
Fore
646 524 m 0
 524 524 426 442 408 356 c 0
 405.811 346.09 404.737 336.274 404.737 326.66 c 0
 404.737 252.843 468.058 191 576 191 c 0
 698 191 784 270 803 356 c 0
 805.286 366.921 806.427 377.777 806.427 388.41 c 0
 806.427 461.504 752.508 524 646 524 c 0
1251 201 m 0
 1310 201 1371 221 1419 267 c 1
 1626 169 l 1
 1513 38 1335 -29 1202 -29 c 0
 1119 -29 1046 -6 985 35 c 1
 978 0 l 1
 721 0 l 1
 750 136 l 1
 708 58 588 -29 448 -29 c 0
 274.419 -29 156.219 92.8387 156.219 267.987 c 0
 156.219 296.663 159.388 326.767 166 358 c 0
 213 580 410 741 608 741 c 0
 747 741 833 655 842 577 c 1
 843 579 852 627 859 658 c 1
 864.712 684.484 867.323 708.12 867.323 729.201 c 0
 867.323 870.498 750.018 897 663 897 c 0
 563 897 494 868 435 844 c 1
 367 1008 l 1
 436 1056 599 1102 706 1102 c 0
 860 1102 998 1059 1070 949 c 1
 1176 1043 1304 1098 1432 1098 c 0
 1653.4 1098 1787.47 934.355 1787.47 694.299 c 0
 1787.47 644.854 1781.78 592.167 1770 537 c 2
 1756 469 l 1
 1092 469 l 1
 1085.77 436.554 1082.96 407.922 1082.96 382.675 c 0
 1082.96 229.731 1185.77 201 1251 201 c 0
1131 651 m 1
 1544 651 l 1
 1545.74 663.961 1546.61 676.828 1546.61 689.45 c 0
 1546.61 785.896 1495.3 868 1383 868 c 0
 1257 868 1163 760 1131 651 c 1
EndSplineSet
EndChar
StartChar: igrave
Encoding: 171 236 68
Width: 550
Flags: HW
HStem: 0 21G<139 408> 1053 20G<139 408> 1146 434<161 227>
VStem: -15 386<1268 1432> 139 269<0 1073>
Fore
367 1073 m 1xe8
 636 1073 l 1
 408 0 l 1
 139 0 l 1
 367 1073 l 1xe8
EndSplineSet
Refer: 119 96 N 1 0 0 1 -97 14 2
EndChar
StartChar: iacute
Encoding: 172 237 69
Width: 544
Flags: HW
HStem: 0 21G<139 408> 1053 20G<139 408> 1144 434<317 382>
VStem: 139 269<0 1073> 173 386<1266 1430>
Fore
367 1073 m 1xf0
 636 1073 l 1
 408 0 l 1
 139 0 l 1
 367 1073 l 1xf0
EndSplineSet
Refer: 153 180 N 1 0 0 1 69 12 2
EndChar
StartChar: icircumflex
Encoding: 173 238 70
Width: 546
Flags: HW
HStem: 0 21G<139 408> 1053 20G<139 408> 1146 344<156 676>
VStem: -128 804<1146 1149> 139 269<0 1073>
Fore
367 1073 m 1xe8
 636 1073 l 1
 408 0 l 1
 139 0 l 1
 367 1073 l 1xe8
EndSplineSet
Refer: 117 94 N 1 0 0 1 -250 -2 2
EndChar
StartChar: idieresis
Encoding: 174 239 71
Width: 548
Flags: HW
HStem: 0 21G<139 408> 1053 20G<139 408> 1159 328<-69 166.3 402 637.3>
VStem: -116 328<1206 1441.3> 139 269<0 1073> 355 328<1206 1441.3>
Fore
367 1073 m 1xe8
 636 1073 l 1
 408 0 l 1
 139 0 l 1
 367 1073 l 1xe8
EndSplineSet
Refer: 144 168 N 1 0 0 1 -83 492 2
EndChar
StartChar: eth
Encoding: 175 240 72
Width: 1062
Flags: HW
HStem: -49 229<414.9 635.9> 723 229<369.7 607.6> 1292 199<169.708 400.212>
VStem: 72 258<218.7 626.9> 692 258<278.5 645.1>
Back
223.232 454.656 m 0
 223.232 223.232 380.928 106.496 481.28 106.496 c 0
 634.88 106.496 765.952 278.528 765.952 454.656 c 1
 765.952 647.168 593.92 790.528 442.368 790.528 c 1
 319.488 790.528 223.232 604.16 223.232 454.656 c 0
673.792 1290.24 m 1
 759.808 1191.94 892.928 983.04 905.216 800.768 c 1
 912.066 700.045 920.203 627.63 917.504 501.76 c 1
 917.504 192.512 727.124 -28.6719 491.521 -28.6719 c 0
 188.416 -28.6719 71.6797 202.752 71.6797 458.752 c 0
 71.6797 716.8 237.568 925.696 452.608 925.696 c 0
 622.592 925.696 673.792 845.824 749.568 778.24 c 1
 749.568 892.928 655.36 1120.26 561.152 1204.22 c 1
 407.552 1060.86 l 1
 309.248 1161.22 l 1
 444.416 1290.24 l 1
 391.168 1308.67 337.92 1314.82 284.672 1314.82 c 0
 245.76 1314.82 206.848 1310.72 169.984 1306.62 c 1
 155.648 1454.08 l 1
 182.272 1456.13 210.944 1456.13 237.568 1456.13 c 0
 350.208 1456.13 460.8 1439.74 565.248 1386.5 c 1
 720.896 1525.76 l 1
 817.152 1417.22 l 1
 673.792 1290.24 l 1
EndSplineSet
Fore
429 467 m 0
 421.815 432.689 418.63 401.444 418.63 373.271 c 0
 418.63 244.608 485.036 180 540 180 c 0
 643 180 760 322 791 467 c 1
 795.838 489.484 798.085 510.753 798.085 530.698 c 0
 798.085 650.907 716.485 723 629 723 c 1
 548 723 455 590 429 467 c 0
1006 1229 m 1
 1055.61 1152.03 1111.06 993.128 1111.06 844.268 c 0
 1111.06 819.076 1109.47 794.171 1106 770 c 1
 1102 715 1094 666 1083 610 c 0
 1076 579 1068 545 1058 506 c 1
 989 182 743 -49 498 -49 c 0
 248.54 -49 153.362 105.909 153.362 305.962 c 0
 153.362 358.522 159.932 414.198 172 471 c 0
 231 748 453 952 685 952 c 0
 788 952 859 866 891 799 c 1
 893.168 809.406 894.187 822.026 894.187 836.188 c 0
 894.187 920.008 858.484 1057.82 814 1110 c 1
 708 1028 l 1
 588 1182 l 1
 688 1255 l 1
 666 1275 648 1291 558 1292 c 0
 557 1292 l 0
 516 1292 478 1288 448 1282 c 1
 470 1475 l 1
 506 1488 575 1491 621 1491 c 0
 626 1491 l 0
 753 1491 846 1436 884 1401 c 1
 1026 1512 l 1
 1150 1327 l 1
 1006 1229 l 1
EndSplineSet
EndChar
StartChar: oslash
Encoding: 183 248 79
Width: 1044
Flags: HW
HStem: -29 230<514.772 722.3> 870 230<390.8 616.047>
VStem: 92 260<447.059 740> 776 260<322.7 636.035>
Back
53.248 -28.6719 m 29
 798.72 1101.82 l 25
 1060.86 1097.73 l 25
 339.968 -28.6719 l 25
 53.248 -28.6719 l 29
92.1602 536.576 m 0
 92.1602 862.404 288.516 1099.78 565.248 1099.78 c 0
 840.669 1099.78 1036.29 862.404 1036.29 536.576 c 0
 1036.29 212.042 840.669 -28.6719 565.248 -28.6719 c 1
 288.516 -28.6719 92.1602 212.042 92.1602 536.576 c 0
352.256 536.576 m 0
 352.256 375.544 446.976 200.704 565.248 200.704 c 0
 690.08 200.704 776.192 375.544 776.192 536.576 c 0
 776.192 697.87 682.111 870.4 565.248 870.4 c 0
 446.976 870.4 352.256 697.87 352.256 536.576 c 0
EndSplineSet
Fore
899 635 m 1
 547 221 l 1
 560 208 584 201 608 201 c 0
 729 201 855 371 889 532 c 0
 893.132 551.835 899.997 583.965 899.997 615.406 c 0
 899.997 622.008 899.694 628.579 899 635 c 1
814 850 m 1
 801 860 785 870 763 870 c 0
 619 870 499 692 465 532 c 0
 461.329 515.114 457.119 484.752 457.119 462.284 c 0
 457.119 454.15 457.671 447.05 459 442 c 1
 814 850 l 1
47 -29 m 1
 228 178 l 1
 203.944 226.111 189.507 299.469 189.507 382.091 c 0
 189.507 429.985 194.358 480.993 205 532 c 1
 275 860 508 1100 812 1100 c 0
 866 1100 952 1079 989 1051 c 1
 1032 1102 l 1
 1295 1102 l 1
 1125 899 l 1
 1151.19 844.125 1166.1 770.975 1166.1 688.763 c 0
 1166.1 639.135 1160.67 586.205 1149 532 c 0
 1080 208 830 -29 563 -29 c 1
 502 -29 417 -14 375 18 c 1
 334 -29 l 1
 47 -29 l 1
EndSplineSet
EndChar
StartChar: thorn
Encoding: 189 254 83
Width: 1093
Flags: HW
HStem: 0 21G<119 377> 117 229<437.4 679.2> 1102 229<471.2 671> 1434 20G<119 377>
VStem: 119 258<0 258 1159 1454> 756 258<414.6 1003.5>
Back
270.336 0 m 17
 118.784 0 l 1
 118.784 1454.08 l 1
 270.336 1454.08 l 1
 270.336 1112.06 l 17
 335.872 1206.27 405.504 1284.1 550.912 1284.1 c 0
 802.816 1284.1 923.648 1015.81 923.648 733.184 c 0
 923.648 450.56 835.584 163.84 512 163.84 c 1
 348.16 163.84 270.336 311.296 270.336 311.296 c 0
 270.336 311.296 270.336 121.406 270.336 0 c 17
772.096 729.088 m 0
 772.096 962.561 688.128 1148.93 561.152 1148.93 c 1
 421.888 1148.93 266.24 987.136 266.24 729.088 c 1
 266.24 438.272 409.6 299.008 522.24 299.008 c 0
 671.744 299.008 772.096 454.656 772.096 729.088 c 0
EndSplineSet
Fore
377 0 m 17
 119 0 l 1
 428 1454 l 1
 686 1454 l 1
 623 1159 l 17
 669 1229 783 1331 879 1331 c 0
 1091.38 1331 1191.35 1150.14 1191.35 923.78 c 0
 1191.35 864.497 1184.49 802.093 1171 739 c 0
 1105 430 928 117 595 117 c 1
 493 117 441 227 432 258 c 1
 432 258 398 101 377 0 c 17
915 750 m 0
 923.259 788.346 926.955 825.222 926.955 859.724 c 0
 926.955 1000.68 865.268 1102 801 1102 c 1
 699 1102 568 935 529 751 c 1
 514.838 685.339 508.499 626.64 508.499 575.672 c 0
 508.499 428.698 561.204 346 631 346 c 0
 725 346 861 492 915 750 c 0
EndSplineSet
EndChar
StartChar: Euro
Encoding: 202 8364 87
Width: 1226
Flags: HW
HStem: 164 229<667.2 844.29> 481 166<125 261 543 805> 760 166<131 261 542 811> 1053 229<639.9 858.3>
Back
259.896 761.856 m 1
 131.072 761.856 l 1
 131.072 897.024 l 1
 283.875 897.024 l 1
 334.093 1068.98 455.209 1196.03 626.688 1196.03 c 0
 786.432 1196.03 847.872 1155.07 942.08 1062.91 c 9
 845.824 966.656 l 2
 788.48 1024 745.472 1060.86 626.688 1060.86 c 1
 542.262 1060.86 478.305 987.761 440.492 897.024 c 1
 710.656 897.024 l 1
 710.656 761.856 l 1
 404.933 761.856 l 1
 402.598 742.933 401.408 724.355 401.408 706.561 c 0
 401.408 685.201 402.559 664.713 404.72 645.12 c 1
 704.512 645.12 l 1
 704.512 509.952 l 1
 439.923 509.952 l 1
 486.666 403.348 566.669 346.112 626.688 346.112 c 0
 712.704 346.112 763.904 362.496 849.92 456.704 c 9
 946.176 360.448 l 1
 878.592 282.624 817.152 210.944 626.688 210.944 c 1
 441.516 210.944 330.388 340.519 283.775 509.952 c 1
 124.928 509.952 l 1
 124.928 645.12 l 1
 260.602 645.12 l 1
 258.894 666.777 258.048 688.671 258.048 710.656 c 0
 258.048 727.88 258.669 744.966 259.896 761.856 c 1
EndSplineSet
Fore
423 760 m 1
 293 760 l 1
 328 926 l 1
 478 926 l 1
 582 1120 786 1282 999 1282 c 0
 1136 1282 1240 1229 1322 1083 c 9
 1138 950 l 17
 1103 1008 1052 1053 951 1053 c 1
 884 1053 765 999 739 926 c 1
 1008 926 l 1
 973 760 l 1
 682 760 l 1
 676 755 671 740 667 722 c 0
 660 689 657 647 657 647 c 1
 943 647 l 1
 907 481 l 1
 645 481 l 1
 656 426 765 393 811 393 c 0
 897 393 938 393 1021 467 c 9
 1167 334 l 1
 1071 241 974 164 762 164 c 1
 532 164 385 311 378 481 c 1
 227 481 l 1
 263 647 l 1
 399 647 l 1
 399 647 405 691 412 725 c 0
 416 741 419 756 423 760 c 1
EndSplineSet
EndChar
StartChar: A
Encoding: 33 65 88
Width: 1421
Flags: HW
HStem: 0 21G<20 331 1040 1347> 379 246<540 840> 1436 20G<583 839>
Back
651.264 1255.42 m 1
 452.608 620.544 l 1
 851.968 620.544 l 1
 651.264 1255.42 l 1
897.024 505.856 m 1
 399.36 505.856 l 0
 227.328 0 l 0
 61.4404 0 l 1
 585.729 1456.13 l 0
 585.729 1456.13 663.184 1456.13 712.704 1456.13 c 17
 1236.99 0 l 1
 1067.01 0 l 1
 897.024 505.856 l 1
EndSplineSet
Fore
922 1048 m 1
 673 625 l 1
 973 625 l 1
 922 1048 l 1
996 379 m 1
 548 379 l 0
 331 0 l 0
 20 0 l 1
 892 1456 l 1
 1148 1456 l 1
 1347 0 l 1
 1040 0 l 1
 996 379 l 1
EndSplineSet
KernsSLIFO: 90 -80 0 0 43 -94 0 0 42 -164 0 0 109 -213 0 0 107 -98 0 0
EndChar
StartChar: B
Encoding: 34 66 89
Width: 1226
Flags: HMW
Back
276.48 706.561 m 1xf4
 276.48 141.312 l 1
 595.968 141.312 l 1
 888.832 141.312 927.744 299.008 927.744 430.08 c 0
 927.744 563.2 835.584 704.512 595.968 704.512 c 1
 569.344 704.512 309.248 706.561 276.48 706.561 c 1xf4
276.48 1316.86 m 1
 276.48 845.824 l 1
 315.392 845.824 481.28 843.776 514.048 843.776 c 1
 837.632 843.776 847.872 1007.62 847.872 1085.44 c 1xf8
 847.872 1173.5 817.152 1314.82 493.568 1314.82 c 1
 462.848 1314.82 313.344 1316.86 276.48 1316.86 c 1
118.784 1456.13 m 1
 493.568 1456.13 l 1
 933.888 1456.13 1007.62 1241.09 1007.62 1085.44 c 1xf8
 1007.62 921.6 862.208 782.336 753.664 782.336 c 1
 999.424 782.336 1083.39 542.72 1083.39 423.936 c 1xf4
 1083.39 286.72 1040.38 0 595.968 0 c 1
 118.784 0 l 1
 118.784 1456.13 l 1
EndSplineSet
Fore
523 639 m 1
 438 240 l 1
 665 240 l 1
 888 240 972 342 994 447 c 0
 997.288 462.694 999.124 477.986 999.124 492.646 c 0
 999.124 576.064 939.669 639 750 639 c 1
 523 639 l 1
646 1219 m 1
 573 877 l 1
 741 877 l 1
 942 877 1017 969 1034 1049 c 1
 1036.38 1060.04 1037.72 1071.31 1037.72 1082.54 c 0
 1037.72 1151.66 986.912 1219 814 1219 c 1
 790 1219 675 1219 646 1219 c 1
428 1456 m 1
 864 1456 l 1
 1230.42 1456 1311.86 1297.45 1311.86 1158.19 c 0
 1311.86 1127.18 1307.83 1097.13 1302 1070 c 1
 1270 916 1162 833 1039 797 c 1
 1202.78 755.004 1262.16 612.834 1262.16 499.658 c 0
 1262.16 478.088 1260 457.57 1256 439 c 1
 1224 285 1090 0 644 0 c 5
 119 0 l 1
 428 1456 l 1
EndSplineSet
EndChar
StartChar: C
Encoding: 35 67 90
Width: 1310
Flags: HW
HStem: -33 242<400 862.8> 1257 240<373.4 841.4>
VStem: 90 283<380.9 1095.9>
Back
1136.64 221.184 m 0
 1040.38 73.7275 919.552 -30.7197 690.176 -30.7197 c 1
 282.624 -30.7197 90.1123 354.304 90.1123 724.992 c 1
 90.1123 1105.92 272.384 1495.04 692.224 1495.04 c 0
 915.456 1495.04 1034.24 1400.83 1124.35 1259.52 c 9
 993.28 1193.98 l 2
 933.888 1277.95 811.008 1353.73 692.224 1353.73 c 1
 397.312 1353.73 256 1038.34 256 724.992 c 1
 256 413.696 417.792 110.592 690.176 110.592 c 1
 833.536 110.592 915.456 157.696 1003.52 294.912 c 9
 1055.44 266.158 1136.64 221.184 1136.64 221.184 c 0
EndSplineSet
Fore
1298 310 m 0
 1180 135 997 -33 718 -33 c 1
 349.378 -33 220.451 202.479 220.451 493.031 c 0
 220.451 576.879 231.188 665.314 250 754 c 1
 331 1134 576 1497 1045 1497 c 0
 1297 1497 1436 1343 1472 1187 c 9
 1198 1098 l 2
 1165 1182 1082 1257 994 1257 c 1
 722 1257 589 1017 533 754 c 1
 517.504 681.094 508.978 610.06 508.978 544.651 c 0
 508.978 352.571 582.507 209 769 209 c 1
 875 209 977 303 1060 410 c 9
 1153 371 1298 310 1298 310 c 0
EndSplineSet
EndChar
StartChar: D
Encoding: 36 68 91
Width: 1273
Flags: HW
HStem: 0 240<383 775> 1217 239<383 832.9>
VStem: 115 268<240 1217> 913 283<349 1100.4>
Back
980.992 727.04 m 1
 980.992 1075.2 796.672 1314.82 538.624 1314.82 c 1
 272.384 1314.82 l 1
 272.384 141.312 l 1
 538.624 141.312 l 1
 796.672 141.312 980.992 380.928 980.992 727.04 c 1
1146.88 727.04 m 1
 1146.88 319.488 899.072 0 538.624 0 c 1
 114.688 0 l 1
 114.688 1456.13 l 1
 538.624 1456.13 l 1
 905.216 1456.13 1146.88 1136.64 1146.88 727.04 c 1
EndSplineSet
Fore
1073 752 m 1
 1084.01 803.75 1089.31 852.853 1089.31 898.402 c 0
 1089.31 1088.74 996.732 1217 841 1217 c 1
 642 1217 l 1
 434 240 l 1
 633 240 l 1
 826 240 1007 442 1073 752 c 1
1356 752 m 1
 1265 323 946 0 582 0 c 1
 115 0 l 1
 424 1456 l 1
 891 1456 l 1
 1200.88 1456 1376.08 1235.05 1376.08 934.735 c 0
 1376.08 876.466 1369.49 815.21 1356 752 c 1
EndSplineSet
EndChar
StartChar: E
Encoding: 37 69 92
Width: 1211
Flags: HW
HStem: 0 240<383 1097> 627 239<383 1034> 1217 239<383 1097>
VStem: 115 268<240 627 866 1217>
Back
114.688 1456.13 m 0
 1036.29 1456.13 l 1
 1036.29 1314.82 l 0
 272.384 1314.82 l 0
 272.384 817.152 l 1
 993.28 817.152 l 1
 993.28 675.84 l 0
 272.384 675.84 l 0
 272.384 141.312 l 0
 1036.29 141.312 l 0
 1036.29 0 l 0
 114.688 0 l 1
 114.688 1456.13 l 0
EndSplineSet
Fore
424 1456 m 0
 1406 1456 l 1
 1356 1217 l 0
 642 1217 l 0
 567 866 l 1
 1218 866 l 1
 1167 627 l 0
 516 627 l 0
 434 240 l 0
 1148 240 l 0
 1097 0 l 0
 115 0 l 1
 424 1456 l 0
EndSplineSet
KernsSLIFO: 105 41 0 0
EndChar
StartChar: F
Encoding: 38 70 93
Width: 1191
Flags: HMW
Back
114.688 1456.13 m 1
 1036.29 1456.13 l 1
 1036.29 1314.82 l 25
 272.384 1314.82 l 25
 272.384 817.152 l 1
 993.28 817.152 l 1
 993.28 675.84 l 25
 272.384 675.84 l 1
 272.384 0 l 1
 114.688 0 l 1
 114.688 1456.13 l 1
EndSplineSet
Fore
424 1456 m 1
 1406 1456 l 1
 1356 1217 l 25
 642 1217 l 25
 567 866 l 1
 1218 866 l 1
 1167 627 l 25
 516 627 l 1
 383 0 l 1
 115 0 l 1
 424 1456 l 1
EndSplineSet
EndChar
StartChar: G
Encoding: 39 71 94
Width: 1421
Flags: HW
HStem: -27 238<410.1 1034.1> 567 240<707 1010> 1257 240<409.5 791.7>
VStem: 90 283<431.8 1057.1> 1010 278<386.3 661>
Back
690.176 -28.6719 m 0
 251.904 -28.6719 90.1123 389.12 90.1123 731.136 c 1
 90.1123 1071.1 251.904 1495.04 692.224 1495.04 c 0
 915.456 1495.04 1036.29 1400.83 1126.4 1259.52 c 9
 999.424 1191.94 l 2
 937.984 1275.9 811.008 1353.73 692.224 1353.73 c 1
 393.216 1353.73 256 1003.52 256 731.136 c 1
 256 456.704 393.216 110.592 690.176 110.592 c 0
 1003.52 110.592 1067.01 430.08 1067.01 616.448 c 1
 681.984 616.448 l 1
 681.984 757.76 l 1
 1230.85 757.76 l 1
 1230.85 671.744 l 1
 1230.85 356.352 1097.73 -28.6719 690.176 -28.6719 c 0
EndSplineSet
Fore
707 -27 m 0
 350.612 -27 225.518 233.13 225.518 521.285 c 0
 225.518 601.017 235.095 682.894 252 762 c 1
 324 1100 576 1497 1033 1497 c 0
 1236 1497 1397 1386 1439 1200 c 9
 1163 1114 l 17
 1158 1188 1041 1257 982 1257 c 1
 747 1257 583 989 535 762 c 1
 521.654 699.224 514.294 633.821 514.294 570.925 c 0
 514.294 379.335 582.586 211 758 211 c 0
 1005 211 1101 428 1131 567 c 1
 828 567 l 1
 879 807 l 1
 1460 807 l 1
 1428 661 l 1
 1360 341 1140 -27 707 -27 c 0
EndSplineSet
KernsSLIFO: 107 -68 0 0
EndChar
StartChar: H
Encoding: 40 72 95
Width: 1253
Flags: HW
HStem: 0 21G<115 383 868 1137> 625 239<383 868> 1436 20G<115 383 868 1137>
VStem: 115 268<0 625 864 1456> 868 269<0 625 864 1456>
Back
114.688 1456.13 m 0
 272.384 1456.13 l 1
 272.384 815.104 l 1
 933.888 815.104 l 1
 933.888 1456.13 l 1
 1091.58 1456.13 l 1
 1091.58 0 l 1
 933.888 0 l 1
 933.888 673.792 l 0
 272.384 673.792 l 1
 272.384 0 l 1
 114.688 0 l 1
 114.688 1456.13 l 0
EndSplineSet
Fore
424 1456 m 0
 692 1456 l 1
 567 864 l 1
 1052 864 l 1
 1177 1456 l 1
 1446 1456 l 1
 1137 0 l 1
 868 0 l 1
 1001 625 l 0
 516 625 l 1
 383 0 l 1
 115 0 l 1
 424 1456 l 0
EndSplineSet
EndChar
StartChar: I
Encoding: 41 73 96
Width: 555
Flags: HW
HStem: 0 21G<143 412> 1436 20G<143 412>
VStem: 143 269<0 1456>
Back
143.36 0 m 1
 143.36 1456.13 l 1
 301.056 1456.13 l 1
 301.056 0 l 1
 143.36 0 l 1
EndSplineSet
Fore
143 0 m 1
 452 1456 l 1
 721 1456 l 1
 412 0 l 1
 143 0 l 1
EndSplineSet
EndChar
StartChar: J
Encoding: 42 74 97
Width: 1251
Flags: HW
HStem: -35 254<348.2 866.9> 1436 20G<860 1128>
VStem: 102 241<354.6 586> 860 268<349.4 1456>
Back
102.4 534.528 m 0
 243.712 534.528 l 1
 243.712 337.92 364.544 129.024 555.008 129.024 c 1
 747.521 129.024 860.16 333.824 860.16 534.528 c 2
 860.16 1456.13 l 1
 1017.86 1456.13 l 1
 1017.86 534.528 l 2
 1017.86 208.896 829.44 -20.4805 555.008 -20.4805 c 1
 282.624 -20.4805 102.4 221.184 102.4 534.528 c 0
EndSplineSet
Fore
227 586 m 0
 468 586 l 1
 458.832 543.055 453.447 499.47 453.447 458.053 c 0
 453.447 327.804 506.7 219 663 219 c 1
 856 219 946 404 985 586 c 2
 1169 1456 l 1
 1437 1456 l 1
 1253 586 l 2
 1175 222 949 -35 609 -35 c 1
 324.472 -35 203.544 135.548 203.544 381.762 c 0
 203.544 445.341 211.608 513.964 227 586 c 0
EndSplineSet
EndChar
StartChar: K
Encoding: 43 75 98
Width: 1333
Flags: HW
HStem: 0 21G<115 383 954 1290> 1436 20G<115 383 926 1241>
VStem: 115 268<0 496 833 1456>
Back
114.688 1456.13 m 0
 272.384 1456.13 l 1
 272.384 747.52 l 1
 980.992 1456.13 l 1
 1167.36 1456.13 l 1
 487.424 753.664 l 1
 1200.13 0 l 1
 1005.57 0 l 1
 376.832 657.408 l 1
 272.384 550.912 l 1
 272.384 0 l 1
 114.688 0 l 1
 114.688 1456.13 l 0
EndSplineSet
Fore
424 1456 m 0
 692 1456 l 1
 560 833 l 1
 1235 1456 l 1
 1570 1456 l 1
 877 808 l 1
 1290 0 l 1
 954 0 l 1
 633 628 l 1
 488 496 l 1
 383 0 l 1
 115 0 l 1
 424 1456 l 0
EndSplineSet
KernsSLIFO: 102 -109 0 0
EndChar
StartChar: L
Encoding: 44 76 99
Width: 1220
Flags: HW
HStem: 0 240<383 1149> 1436 20G<115 383>
VStem: 115 268<240 1456>
Back
114.688 1456.13 m 1
 272.384 1456.13 l 1
 272.384 141.312 l 1
 1038.34 141.312 l 1
 1038.34 0 l 1
 114.688 0 l 1
 114.688 1456.13 l 1
EndSplineSet
Fore
424 1456 m 1
 692 1456 l 1
 434 240 l 1
 1200 240 l 1
 1149 0 l 1
 115 0 l 1
 424 1456 l 1
EndSplineSet
EndChar
StartChar: M
Encoding: 45 77 100
Width: 1548
Flags: HW
HStem: 0 21G<66 328 641 911 1229 1491> 1436 20G<66 426 1132 1491>
VStem: 66 262<0 988> 1229 262<0 999>
Back
65.5361 0 m 1
 65.5361 1456.13 l 2
 280.576 1456.13 l 1
 739.328 208.896 l 2
 1200.13 1456.13 l 1
 1406.98 1456.13 l 1
 1406.98 0 l 1
 1253.38 0 l 25
 1253.38 1204.22 l 1
 825.344 16.3838 l 0
 647.168 16.3838 l 1
 219.136 1204.22 l 0
 219.136 0 l 1
 65.5361 0 l 1
EndSplineSet
Fore
66 0 m 1
 375 1456 l 2
 735 1456 l 1
 865 424 l 2
 1441 1456 l 1
 1800 1456 l 1
 1491 0 l 1
 1229 0 l 25
 1441 999 l 1
 911 0 l 0
 641 0 l 1
 538 988 l 0
 328 0 l 1
 66 0 l 1
EndSplineSet
EndChar
StartChar: N
Encoding: 46 78 101
Width: 1343
Flags: HW
HStem: 0 21G<119 387 956 1221> 1436 20G<119 379 952 1221>
VStem: 119 268<0 973> 952 269<516 1456>
Back
118.784 0 m 1
 118.784 1456.13 l 2
 272.384 1456.13 l 1
 1011.71 294.912 l 25
 1011.71 1456.13 l 1
 1169.41 1456.13 l 1
 1169.41 0 l 0
 1024 0 l 1
 276.48 1189.89 l 0
 276.48 0 l 1
 118.784 0 l 1
EndSplineSet
Fore
119 0 m 1
 428 1456 l 2
 688 1456 l 1
 1062 516 l 25
 1261 1456 l 1
 1530 1456 l 1
 1221 0 l 0
 956 0 l 1
 594 973 l 0
 387 0 l 1
 119 0 l 1
EndSplineSet
EndChar
StartChar: O
Encoding: 47 79 102
Width: 1409
Flags: HW
HStem: -29 242<384.8 1046.5> 1249 240<382.2 1049.1>
VStem: 100 283<432.9 1049.1> 1047 282<432.9 1049.1>
Back
1103.87 724.992 m 0
 1103.87 995.328 1007.62 1353.73 684.032 1353.73 c 0
 362.496 1353.73 266.24 995.328 266.24 724.992 c 1
 266.24 456.704 364.544 110.592 684.032 110.592 c 1
 1005.57 110.592 1103.87 456.704 1103.87 724.992 c 0
100.352 724.992 m 1
 100.352 1046.53 256 1495.04 684.032 1495.04 c 1
 1114.11 1495.04 1269.76 1046.53 1269.76 724.992 c 1
 1269.76 405.504 1112.06 -30.7197 684.032 -30.7197 c 1
 258.048 -30.7197 100.352 405.504 100.352 724.992 c 1
EndSplineSet
Fore
1207 754 m 0
 1220.21 815.177 1228.47 879.333 1228.47 940.417 c 0
 1228.47 1105.99 1167.74 1249 980 1249 c 0
 724 1249 592 981 543 754 c 1
 528.216 683.776 518.848 609.753 518.848 539.768 c 0
 518.848 363.592 578.214 213 760 213 c 1
 1015 213 1155 507 1207 754 c 0
260 754 m 1
 328 1074 580 1489 1031 1489 c 1
 1390.5 1489 1510.88 1226.47 1510.88 958.017 c 0
 1510.88 888.946 1502.92 819.484 1489 754 c 1
 1417 413 1159 -29 709 -29 c 1
 355.736 -29 235.843 244.608 235.843 527.365 c 0
 235.843 603.993 244.648 681.292 260 754 c 1
EndSplineSet
KernsSLIFO: 88 -98 0 0 107 -113 0 0
EndChar
StartChar: P
Encoding: 48 80 103
Width: 1148
Flags: HW
HStem: 0 21G<121 389> 580 243<389 519> 1217 239<389 780.3>
VStem: 121 268<0 580 823 1217> 795 274<864 1176>
Back
278.528 774.145 m 1
 423.936 774.145 l 1
 751.616 774.145 870.4 874.496 870.4 1046.53 c 1
 870.4 1216.51 751.616 1314.82 423.936 1314.82 c 1
 278.528 1314.82 l 1
 278.528 774.145 l 1
120.832 1456.13 m 0
 278.528 1456.13 l 1
 423.936 1456.13 l 1
 798.72 1456.13 1032.19 1302.53 1032.19 1046.53 c 0
 1032.19 794.624 798.72 630.784 423.936 630.784 c 1
 278.528 630.784 l 1
 278.528 0 l 1
 120.832 0 l 1
 120.832 1456.13 l 0
EndSplineSet
Fore
564 823 m 1
 694 823 l 1
 895 823 986 900 1012 1020 c 1
 1015.58 1037.18 1017.46 1053.48 1017.46 1068.8 c 0
 1017.46 1160.47 950.219 1217 778 1217 c 1
 648 1217 l 1
 564 823 l 1
430 1456 m 0
 698 1456 l 1
 828 1456 l 2
 1148.99 1456 1295.57 1309.28 1295.57 1114.28 c 0
 1295.57 1083.9 1292.01 1052.35 1285 1020 c 0
 1234 780 992 580 642 580 c 1
 512 580 l 1
 389 0 l 1
 121 0 l 1
 430 1456 l 0
EndSplineSet
KernsSLIFO: 88 -137 0 0
EndChar
StartChar: Q
Encoding: 49 81 104
Width: 1437
Flags: HW
HStem: -35 242<377.6 793.6> 1255 240<391.4 1014.1>
VStem: 98 287<460.2 1072.5> 1047 278<623.342 1099.8>
Back
1046.53 753.664 m 4
 1046.53 980.853 972.04 1282.05 714.752 1282.05 c 4
 459.416 1282.05 382.976 980.853 382.976 753.664 c 5
 382.976 506.839 461.042 188.416 714.752 188.416 c 5
 970.412 188.416 1046.53 506.839 1046.53 753.664 c 4
100.352 753.664 m 5
 100.352 1074.34 264.192 1521.66 714.752 1521.66 c 5
 1167.39 1521.66 1329.15 1074.34 1329.15 753.664 c 5
 1329.15 412.53 1165.23 -53.248 714.752 -53.248 c 5
 266.349 -53.248 100.352 412.53 100.352 753.664 c 5
EndSplineSet
Fore
1207 754 m 1
 1220.96 819.168 1228.45 882.476 1228.45 940.923 c 0
 1228.45 1121.04 1157.39 1255 986 1255 c 1
 734 1255 597 999 545 754 c 1
 530.716 686.747 520.86 611.081 520.86 537.966 c 0
 520.86 365.38 575.776 207 757 207 c 1
 780 207 856 211 898 244 c 1
 763 362 l 1
 952 559 l 1
 1082 428 l 1
 1128 489 1187 657 1207 754 c 1
258 754 m 1
 322 1052 572 1495 1037 1495 c 1
 1380.88 1495 1508.69 1248.51 1508.69 970.399 c 0
 1508.69 899.137 1500.3 825.799 1485 754 c 1
 1436 520 1336 350 1255 260 c 1
 1370 161 l 1
 1180 -29 l 1
 1070 80 l 1
 982 14 849 -35 702 -35 c 1
 367.52 -35 234.096 233.929 234.096 530.461 c 0
 234.096 604.506 242.415 680.271 258 754 c 1
EndSplineSet
EndChar
StartChar: R
Encoding: 50 82 105
Width: 1210
Flags: HW
HStem: 0 21G<121 389 858 1164> 580 243<389 589.967> 1217 239<389 778.3>
VStem: 121 268<0 580 823 1217> 795 274<864 1176>
Back
389 823 m 5
 519 823 l 5
 720 823 795 900 795 1020 c 5
 795 1140 720 1217 519 1217 c 5
 389 1217 l 5
 389 823 l 5
121 1456 m 4
 389 1456 l 5
 519 1456 l 6
 889.502 1456 1068.68 1260 1068.68 1020 c 4
 1068.68 780 869.147 580 519 580 c 5
 389 580 l 5
 389 0 l 5
 121 0 l 5
 121 1456 l 4
EndSplineSet
Fore
564 823 m 1
 692 823 l 1
 893 823 986 900 1012 1020 c 1
 1015.51 1036.87 1017.35 1052.88 1017.35 1067.96 c 0
 1017.35 1160.12 948.749 1217 776 1217 c 1
 648 1217 l 1
 564 823 l 1
858 0 m 1
 668 581 l 1
 656 580 630 579 603 579 c 0
 567 579 528 580 512 580 c 1
 389 0 l 1
 121 0 l 1
 430 1456 l 0
 698 1456 l 1
 826 1456 l 1
 1149.47 1456 1296.21 1308.59 1296.21 1112.92 c 0
 1296.21 1082.96 1292.77 1051.87 1286 1020 c 0
 1253 864 1126 706 925 627 c 1
 1164 0 l 1
 858 0 l 1
EndSplineSet
EndChar
StartChar: S
Encoding: 51 83 106
Width: 1202
Flags: HW
HStem: -29 242<414.6 818.9> 1251 241<477 763>
VStem: 135 274<908 1251.2> 852 274<261 653.6>
Back
88.0645 290.816 m 5
 219.136 370.688 l 5
 309.248 231.424 405.504 110.592 600.064 110.592 c 5
 782.336 110.592 923.648 239.616 923.648 397.312 c 5
 923.648 548.864 776.192 649.216 532.48 712.704 c 4
 354.304 759.808 114.688 847.872 114.688 1095.68 c 5
 114.688 1347.58 342.016 1495.04 575.488 1495.04 c 5
 819.2 1495.04 933.888 1388.54 1028.1 1249.28 c 5
 907.264 1169.41 l 5
 847.872 1271.81 731.136 1353.73 571.392 1353.73 c 5
 417.792 1353.73 276.48 1267.71 276.48 1095.68 c 5
 276.48 913.408 509.952 868.352 643.072 823.296 c 4
 845.824 755.712 1085.44 665.6 1085.44 397.312 c 5
 1085.44 147.456 854.016 -30.7197 600.064 -30.7197 c 5
 380.928 -30.7197 221.184 81.9199 88.0645 290.816 c 5
EndSplineSet
Fore
169 404 m 1
 446 447 l 1
 451 328 507 213 665 213 c 1
 818 213 914 294 938 404 c 0
 941.334 419.611 942.922 434.125 942.922 447.672 c 0
 942.922 600.744 740.145 630.456 561 726 c 0
 457.474 781.157 356.829 850.716 356.829 1001.28 c 0
 356.829 1028.15 360.034 1057.59 367 1090 c 1
 425 1362 690 1492 937 1492 c 1
 1167 1492 1320 1356 1341 1186 c 1
 1057 1135 l 1
 1042 1206 996 1251 886 1251 c 1
 776 1251 667 1214 641 1090 c 0
 639.344 1082.27 638.55 1074.8 638.55 1067.56 c 0
 638.55 943.786 870.957 890.356 990 828 c 0
 1122.4 759.288 1223.9 673.724 1223.9 508.939 c 0
 1223.9 477.072 1220.1 442.243 1212 404 c 1
 1154 134 894 -29 614 -29 c 1
 348.201 -29 168.033 130.292 168.033 372.891 c 0
 168.033 383.115 168.353 393.486 169 404 c 1
EndSplineSet
EndChar
StartChar: T
Encoding: 52 84 107
Width: 1353
Flags: HW
HStem: 0 21G<555 823> 1217 239<78 555 823 1280>
VStem: 555 268<0 1217>
Back
77.8242 1456.13 m 0
 1169.41 1456.13 l 1
 1169.41 1314.82 l 0
 712.704 1314.82 l 1
 712.704 0 l 1
 555.008 0 l 1
 555.008 1314.82 l 1
 77.8242 1314.82 l 1
 77.8242 1456.13 l 0
EndSplineSet
Fore
387 1456 m 0
 1589 1456 l 1
 1539 1217 l 0
 1082 1217 l 1
 823 0 l 1
 555 0 l 1
 814 1217 l 1
 337 1217 l 1
 387 1456 l 0
EndSplineSet
KernsSLIFO: 41 -135 0 0 88 -111 0 0
EndChar
StartChar: U
Encoding: 53 85 108
Width: 1347
Flags: HW
HStem: -29 242<465.9 848.1> 1436 20G<111 385 930 1204>
VStem: 111 274<252 1456> 930 274<354 1456>
Back
993.28 1456.13 m 1
 1155.07 1456.13 l 1
 1155.07 661.504 l 1
 1155.07 239.616 960.512 -30.7197 632.832 -30.7197 c 0
 305.152 -30.7197 110.592 239.616 110.592 661.504 c 1
 110.592 1456.13 l 1
 272.384 1456.13 l 1
 272.384 661.504 l 1
 272.384 290.816 438.272 110.592 632.832 110.592 c 1
 827.392 110.592 993.28 290.816 993.28 661.504 c 1
 993.28 1456.13 l 1
EndSplineSet
Fore
1239 1456 m 1
 1513 1456 l 1
 1352 694 l 1
 1255 239 995 -29 651 -29 c 0
 377.803 -29 229.583 141.019 229.583 440.128 c 0
 229.583 516.552 239.26 601.404 259 694 c 1
 420 1456 l 1
 694 1456 l 1
 533 694 l 1
 514.068 605.822 505.09 531.029 505.09 468.609 c 0
 505.09 290.348 578.311 213 702 213 c 1
 870 213 1005 354 1078 694 c 1
 1239 1456 l 1
EndSplineSet
EndChar
StartChar: V
Encoding: 54 86 109
Width: 1302
Flags: HW
HStem: 0 21G<497 814> 1436 20G<70 359 953 1231>
Back
1011.71 1456.13 m 1
 1175.55 1456.13 l 1
 735.232 0 l 1
 516.096 0 l 1
 69.6318 1456.13 l 1
 239.616 1456.13 l 1
 624.64 167.936 l 1
 1011.71 1456.13 l 1
EndSplineSet
Fore
1262 1456 m 1
 1540 1456 l 1
 814 0 l 1
 497 0 l 1
 379 1456 l 1
 668 1456 l 1
 741 411 l 1
 1262 1456 l 1
EndSplineSet
KernsSLIFO: 124 -66 0 0 88 -244 0 0 92 -70 0 0
EndChar
StartChar: W
Encoding: 55 87 110
Width: 1669
Flags: HW
HStem: 0 21G<303 599 1040 1352> 1436 20G<74 355 1353 1589>
Back
73.7275 1456.13 m 1
 227.328 1456.13 l 1
 417.792 223.232 l 0
 702.464 1419.26 l 1
 876.544 1419.26 l 0
 1161.22 223.232 l 1
 1351.68 1456.13 l 25
 1505.28 1456.13 l 1
 1275.9 0 l 1
 1056.77 0 l 1
 790.528 1187.84 l 2
 524.288 0 l 1
 301.056 0 l 2
 73.7275 1456.13 l 1
EndSplineSet
Fore
383 1456 m 1
 664 1456 l 1
 609 538 l 0
 1007 1429 l 1
 1289 1429 l 0
 1324 532 l 1
 1662 1456 l 25
 1898 1456 l 1
 1352 0 l 1
 1040 0 l 1
 1019 935 l 2
 599 0 l 1
 303 0 l 2
 383 1456 l 1
EndSplineSet
KernsSLIFO: 124 -27 0 0 88 -96 0 0
EndChar
StartChar: X
Encoding: 56 88 111
Width: 1298
Flags: HW
HStem: 0 21G<53 390 888 1225> 1436 20G<59 368 909 1219>
Back
63.4883 1456.13 m 0
 245.76 1456.13 l 1
 608.256 849.92 l 1
 962.56 1456.13 l 1
 1144.83 1456.13 l 1
 692.224 729.088 l 1
 1150.98 0 l 1
 960.512 0 l 1
 608.256 585.729 l 1
 247.808 0 l 1
 69.6318 0 l 1
 524.288 729.088 l 1
 63.4883 1456.13 l 0
EndSplineSet
Fore
368 1456 m 0
 677 1456 l 1
 840 955 l 1
 1218 1456 l 1
 1528 1456 l 1
 950 727 l 1
 1225 0 l 1
 888 0 l 1
 735 460 l 1
 390 0 l 1
 53 0 l 1
 635 727 l 1
 368 1456 l 0
EndSplineSet
EndChar
StartChar: Y
Encoding: 57 89 112
Width: 1314
Flags: HW
HStem: 0 21G<528 797> 1436 20G<66 351 970 1249>
VStem: 528 269<0 705>
Back
65.5361 1456.13 m 1
 233.472 1456.13 l 1
 589.824 856.064 l 1
 946.176 1456.13 l 1
 1114.11 1456.13 l 1
 667.648 747.52 l 1
 667.648 0 l 1
 509.952 0 l 1
 509.952 747.52 l 1
 65.5361 1456.13 l 1
EndSplineSet
Fore
375 1456 m 1
 660 1456 l 1
 856 919 l 1
 1279 1456 l 1
 1558 1456 l 1
 947 705 l 1
 797 0 l 1
 528 0 l 1
 678 705 l 1
 375 1456 l 1
EndSplineSet
KernsSLIFO: 88 -190 0 0 120 -127 0 0
EndChar
StartChar: Z
Encoding: 58 90 113
Width: 1417
Flags: HW
HStem: -0 240<508 1300> 1217 239<139 872>
Back
118.784 1456.13 m 1
 1222.66 1456.13 l 1
 358.4 141.312 l 1
 1234.94 141.312 l 1
 1234.94 0 l 1
 90.1123 0 l 1
 962.56 1314.82 l 1
 118.784 1314.82 l 1
 118.784 1456.13 l 1
EndSplineSet
Fore
448 1456 m 1
 1615 1456 l 1
 559 240 l 1
 1351 240 l 1
 1300 0 l 1
 72 0 l 1
 1131 1217 l 1
 398 1217 l 1
 448 1456 l 1
EndSplineSet
EndChar
StartChar: bracketleft
Encoding: 59 91 114
Width: 743
Flags: HW
HStem: -98 237<375 623> 1292 240<375 623>
VStem: 121 254<139 1292> 121 502<-98 139 1292 1532>
Back
516.096 -96.2559 m 0
 120.832 -96.2559 l 1
 120.832 1529.86 l 0
 516.096 1529.86 l 1
 516.096 1388.54 l 1
 270.336 1388.54 l 1
 270.336 43.0078 l 1
 516.096 43.0078 l 1
 516.096 -96.2559 l 0
EndSplineSet
Fore
602 -98 m 0xd0
 100 -98 l 1
 447 1532 l 0
 949 1532 l 1
 898 1292 l 1xd0
 650 1292 l 1
 405 139 l 1xe0
 653 139 l 1
 602 -98 l 0xd0
EndSplineSet
EndChar
StartChar: backslash
Encoding: 60 92 115
Width: 856
Flags: HW
HStem: 0 21G<585 895>
VStem: -39 934<0 1543>
Back
679.936 0 m 1
 -38.9121 1544.19 l 1
 133.12 1544.19 l 0
 849.92 0 l 1
 679.936 0 l 1
EndSplineSet
Fore
585 0 m 1
 289 1543 l 1
 581 1543 l 0
 895 0 l 1
 585 0 l 1
EndSplineSet
KernsSLIFO: 115 -143 0 0
EndChar
StartChar: bracketright
Encoding: 61 93 116
Width: 743
Flags: HW
HStem: -98 239<119 365> 1292 240<119 365>
VStem: 119 500<-98 141 1292 1532> 365 254<141 1292>
Back
118.784 -96.2559 m 0
 118.784 45.0557 l 1
 364.544 45.0557 l 1
 364.544 1388.54 l 1
 118.784 1388.54 l 1
 118.784 1529.86 l 1
 514.048 1529.86 l 0
 514.048 -96.2559 l 1
 118.784 -96.2559 l 0
EndSplineSet
Fore
98 -98 m 0xe0
 149 141 l 1xe0
 395 141 l 1
 640 1292 l 1xd0
 394 1292 l 1
 445 1532 l 1
 945 1532 l 0
 598 -98 l 1
 98 -98 l 0xe0
EndSplineSet
EndChar
StartChar: asciicircum
Encoding: 62 94 117
Width: 1081
Flags: HW
HStem: 1148 344<406 926>
VStem: 122 804<1148 1151>
Back
811.008 1148.93 m 1
 622.592 1148.93 l 1
 466.944 1361.92 l 1
 309.248 1150.98 l 0
 122.88 1150.98 l 1
 399.36 1492.99 l 1
 530.432 1492.99 l 1
 811.008 1148.93 l 1
EndSplineSet
Fore
1170 1148 m 1
 899 1148 l 1
 801 1309 l 1
 644 1151 l 0
 367 1151 l 1
 723 1492 l 1
 959 1492 l 1
 1170 1148 l 1
EndSplineSet
EndChar
StartChar: underscore
Encoding: 63 95 118
Width: 1241
Flags: HW
HStem: -281 240<78 1167>
Back
77.8242 -231.424 m 1
 77.8242 -90.1123 l 1
 1167.36 -90.1123 l 1
 1167.36 -231.424 l 1
 77.8242 -231.424 l 1
EndSplineSet
Fore
18 -281 m 1
 69 -41 l 1
 1158 -41 l 1
 1107 -281 l 1
 18 -281 l 1
EndSplineSet
EndChar
StartChar: grave
Encoding: 64 96 119
Width: 536
Flags: HW
HStem: 1132 434<261 327>
VStem: 85 386<1254 1418>
Back
432.128 1300.48 m 1
 270.336 1300.48 l 2
 96.2559 1554.43 l 2
 253.952 1554.43 l 1
 432.128 1300.48 l 1
EndSplineSet
Fore
568 1132 m 2
 386 1418 l 1
 382.937 1423.51 381.75 1430.15 381.75 1437.46 c 0
 381.75 1442.08 382.225 1446.96 383 1452 c 0
 391 1490 429 1536 458 1553 c 0
 484 1569 523 1585 554 1585 c 0
 572 1585 587 1579 594 1566 c 1
 738 1254 l 2
 738.5 1252 738.75 1249.75 738.75 1247.38 c 0
 738.75 1245 738.5 1242.5 738 1240 c 0
 732 1212 692 1168 672 1155 c 0
 653 1142 613 1123 588 1123 c 0
 579 1123 571 1126 568 1132 c 2
EndSplineSet
EndChar
StartChar: a
Encoding: 65 97 120
Width: 1080
Flags: HW
HStem: -29 220<376.4 636> 524 217<376.4 632> 897 205<342 602>
VStem: 90 242<244.2 467.8> 719 259<600.92 862> 727 251<0 14.2541 244.2 467.8>
Back
720 -477 m 4
 720 -695 849 -785 1086 -785 c 5
 1085 -547 l 5
 994 -547 978 -529 978 -473 c 4
 978 738 l 5
 720 738 l 5
 720 581 l 21
 651 690 529 764 413 764 c 4
 149 764 34 500 34 196 c 4
 34 -108 151 -365 413 -364 c 5
 529 -364 651 -288 720 -179 c 5
 720 -477 l 4
294 201 m 4
 294 446 409 530 506 530 c 5
 603 530 729 454 728 201 c 5
 728 -54 603 -130 506 -130 c 4
 412 -130 294 -23 294 201 c 4
EndSplineSet
Fore
646 524 m 5xf4
 524 524 426 442 408 356 c 5
 405.811 346.09 404.737 336.274 404.737 326.66 c 0
 404.737 252.843 468.058 191 576 191 c 5
 698 191 784 270 803 356 c 5
 805.286 366.921 806.427 377.777 806.427 388.41 c 0
 806.427 461.504 752.508 524 646 524 c 5xf4
608 741 m 5
 748 741 833 654 842 576 c 5
 859 658 l 4
 864.712 684.484 867.323 708.12 867.323 729.201 c 0
 867.323 870.498 750.018 897 663 897 c 5
 563 897 494 868 435 844 c 13
 367 1008 l 21
 436 1056 599 1102 706 1102 c 5
 931.169 1102 1123.1 1008.94 1123.1 749.807 c 0
 1123.1 707.421 1117.96 660.592 1107 609 c 14xf8
 1043 305 l 6
 978 0 l 5
 721 0 l 5
 750 136 l 5
 708 58 588 -29 448 -29 c 5
 274.419 -29 156.219 92.8387 156.219 267.987 c 0
 156.219 296.663 159.388 326.767 166 358 c 5
 213 580 410 741 608 741 c 5
EndSplineSet
KernsSLIFO: 42 -38 0 0
EndChar
StartChar: b
Encoding: 66 98 121
Width: 1122
Flags: HW
HStem: -28 234<533.2 713.2> 866 234<533.2 717.1> 1434 20G<119 377>
VStem: 119 258<0 157 917 1454> 803 260<245.8 855.5>
Back
377 0 m 9
 119 0 l 1
 119 1454 l 1
 377 1454 l 1
 377 912 l 17
 434 1016 557 1102 694 1102 c 0
 886 1102 1013.97 916.986 1014 538 c 2
 1014 0 l 1
 756 0 l 0
 756 537 l 2
 756 812 656 866.89 576 866.89 c 0
 496 866.89 377 810 377 536 c 2
 377 0 l 9
270.336 0 m 17
 118.784 0 l 1
 118.784 1454.08 l 1
 270.336 1454.08 l 1
 270.336 899.072 l 17
 331.776 995.328 405.504 1091.58 550.912 1091.58 c 0
 802.816 1091.58 923.648 823.296 923.648 540.672 c 0
 923.648 258.048 835.584 -28.6719 512 -28.6719 c 1
 348.16 -28.6719 270.336 139.264 270.336 139.264 c 0
 270.336 0 l 17
770.048 536.576 m 0
 770.048 770.048 688.128 956.416 561.152 956.416 c 1
 421.888 956.416 266.24 794.624 266.24 536.576 c 1
 266.24 245.76 409.6 106.496 522.24 106.496 c 0
 671.744 106.496 770.048 262.144 770.048 536.576 c 0
EndSplineSet
Fore
377 0 m 17
 119 0 l 1
 428 1454 l 1
 686 1454 l 1
 572 917 l 17
 664 1026 802 1100 918 1100 c 0
 1117.89 1100 1200.26 948.65 1200.26 743.183 c 0
 1200.26 677.286 1191.78 605.822 1176 532 c 0
 1111 228 940 -28 678 -28 c 1
 562 -28 456 48 410 157 c 1
 377 0 l 17
917 537 m 0
 927.044 584.322 931.529 625.637 931.529 661.501 c 0
 931.529 811.315 853.264 866 775 866 c 1
 678 866 537 790 483 537 c 1
 473.076 490.138 468.657 449.321 468.657 413.91 c 0
 468.657 256.633 555.826 206 635 206 c 0
 729 206 870 313 917 537 c 0
EndSplineSet
EndChar
StartChar: c
Encoding: 67 99 122
Width: 1047
Flags: HW
HStem: -29 232<420.1 745.1> 870 230<417 705.712>
VStem: 86 262<274.6 790.7>
Back
1362 0 m 21
 348 537 l 5
 1362 1074 l 13
1024 737 m 9
 776 737 l 17
 741 807 687 870 586 870 c 1
 456 870 348 731 348 532 c 4
 348 334 463 203 606 203 c 1
 713 203 733 262 762 315 c 9
 1024 315 l 1
 991 184 836 -29 606 -29 c 1
 285 -29 86 194 86 532 c 0
 86 871 297 1100 586 1100 c 0
 762 1100 983 975 1024 737 c 9
835.584 960.512 m 9
 735.232 860.16 l 2
 677.888 917.504 618.496 958.464 499.712 958.464 c 1
 368.64 958.464 239.616 778.24 239.616 536.576 c 0
 239.616 294.912 389.12 104.448 520.192 104.448 c 0
 647.168 104.448 694.272 157.696 741.376 217.088 c 9
 839.68 118.784 l 1
 786.432 61.4404 716.8 -28.6719 520.192 -30.7197 c 1
 262.144 -30.7197 86.0156 208.896 86.0156 536.576 c 0
 86.0156 864.256 270.336 1093.63 499.712 1093.63 c 0
 659.456 1093.63 741.376 1052.67 835.584 960.512 c 9
EndSplineSet
Fore
927 756 m 1
 905 817 863 870 771 870 c 0
 641 870 503 731 461 532 c 0
 453.815 498.128 450.405 466.217 450.405 436.586 c 0
 450.405 293.013 530.463 203 649 203 c 1
 756 203 789 262 829 315 c 9
 1019 204 l 0
 926 90 771 -29 600 -29 c 1
 331.649 -29 181.408 126.847 181.408 375.444 c 0
 181.408 424.218 187.191 476.562 199 532 c 0
 271 871 531 1100 820 1100 c 0
 973 1100 1116 1010 1163 868 c 1
 927 756 l 1
EndSplineSet
EndChar
StartChar: d
Encoding: 68 100 123
Width: 1122
Flags: HW
HStem: -28 234<423.8 603.8> 866 234<419.9 603.8> 1434 20G<760 1018>
VStem: 74 260<245.8 855.5> 760 258<0 157 917 1454>
Back
741.376 0 m 9
 741.376 139.264 l 0
 741.376 139.264 663.552 -28.6719 499.712 -28.6719 c 1
 176.128 -28.6719 88.0645 258.048 88.0645 540.672 c 0
 88.0645 823.296 208.896 1091.58 460.8 1091.58 c 0
 606.208 1091.58 684.032 987.136 741.376 899.072 c 9
 741.376 1454.08 l 1
 892.928 1454.08 l 1
 892.928 0 l 1
 741.376 0 l 9
241.664 536.576 m 0
 241.664 262.144 339.968 106.496 489.472 106.496 c 0
 602.112 106.496 745.472 245.76 745.472 536.576 c 1
 745.472 794.624 589.824 956.416 450.56 956.416 c 1
 323.584 956.416 241.664 770.048 241.664 536.576 c 0
EndSplineSet
Fore
760 0 m 9
 793 157 l 1
 701 48 563 -28 447 -28 c 1
 247.401 -28 163.298 120.577 163.298 325.765 c 0
 163.298 389.913 171.519 459.595 187 532 c 0
 252 836 423 1100 687 1100 c 0
 803 1100 909 1026 955 917 c 9
 1069 1454 l 1
 1327 1454 l 1
 1018 0 l 1
 760 0 l 9
448 537 m 0
 439.436 496.185 435.587 459.254 435.587 426.148 c 0
 435.587 277.559 513.128 206 590 206 c 0
 687 206 828 282 882 537 c 1
 891.924 583.495 896.343 624.012 896.343 659.178 c 0
 896.343 815.367 809.174 866 730 866 c 1
 633 866 500 782 448 537 c 0
EndSplineSet
EndChar
StartChar: e
Encoding: 69 101 124
Width: 1093
Flags: HW
HStem: -29 230<479.428 655.276> 469 182<363 776> 868 230<405.2 734.1>
VStem: 88 274<171.606 537>
Back
247.104 604.16 m 1
 768.704 604.16 l 1
 757.76 778.24 667.712 958.464 507.904 958.464 c 0
 348.097 958.464 258.048 774.145 247.104 604.16 c 1
247.073 468.992 m 1
 262.144 286.72 348.033 106.496 507.904 106.496 c 0
 602.145 106.496 668.416 162.464 711.521 242.655 c 0
 844.48 187.616 l 0
 776.159 55.4238 662.368 -28.6719 507.904 -28.6719 c 1
 241.664 -28.6719 88.0645 221.184 88.0645 536.576 c 0
 88.0645 851.968 241.664 1093.63 507.904 1093.63 c 0
 774.144 1093.63 923.648 851.968 923.648 536.576 c 0
 923.648 514.539 924.608 491.84 924.608 468.992 c 1
 247.073 468.992 l 1
EndSplineSet
Fore
501 651 m 5
 914 651 l 5
 915.736 663.961 916.615 676.828 916.615 689.45 c 0
 916.615 785.896 865.303 868 753 868 c 4
 627 868 533 760 501 651 c 5
621 201 m 4
 680 201 741 221 789 267 c 4
 996 169 l 4
 883 38 705 -29 572 -29 c 5
 345.041 -29 186.725 143.691 186.725 396.33 c 0
 186.725 440.901 191.652 487.961 202 537 c 4
 271 860 536 1098 802 1098 c 4
 1023.4 1098 1157.47 934.355 1157.47 694.299 c 0
 1157.47 644.854 1151.78 592.167 1140 537 c 4
 1126 469 l 5
 462 469 l 5
 455.766 436.554 452.964 407.922 452.964 382.675 c 0
 452.964 229.731 555.768 201 621 201 c 4
EndSplineSet
KernsSLIFO: 40 -53 0 0
EndChar
StartChar: f
Encoding: 70 102 125
Width: 782
Flags: HW
HStem: 0 21G<213 471> 844 229<74 213 471 636> 1260 229<478.9 596.3>
VStem: 213 258<0 844 1073 1233>
Back
405.504 937.984 m 0
 405.504 0 l 1
 253.952 0 l 1
 253.952 937.984 l 0
 114.688 937.984 l 1
 114.688 1073.15 l 1
 253.952 1073.15 l 0
 253.952 1183.74 l 1
 253.952 1380.35 368.64 1480.7 538.624 1480.7 c 0
 622.592 1480.7 653.312 1454.08 712.704 1419.26 c 9
 616.448 1323.01 l 17
 581.632 1339.39 577.536 1345.54 548.864 1345.54 c 0
 450.56 1345.54 405.504 1288.19 405.504 1183.74 c 1
 405.504 1073.15 l 0
 602.112 1073.15 l 1
 602.112 937.984 l 1
 405.504 937.984 l 0
EndSplineSet
Fore
650 844 m 0
 471 0 l 1
 213 0 l 1
 392 844 l 0
 253 844 l 1
 302 1073 l 1
 441 1073 l 0
 458 1153 l 1
 486 1286 681 1489 879 1489 c 0
 963 1489 1041 1458 1088 1400 c 9
 901 1221 l 17
 882 1249 841 1260 821 1260 c 0
 764 1260 733 1233 720 1173 c 1
 699 1073 l 0
 864 1073 l 1
 815 844 l 1
 650 844 l 0
EndSplineSet
KernsSLIFO: 120 -80 0 0 34 -68 0 0 45 -41 0 0 40 -70 0 0 41 -82 0 0 35 -41 0 0
EndChar
StartChar: g
Encoding: 71 103 126
Width: 1137
Flags: HW
HStem: -461 224<380.7 710.9> -28 234<423.8 603.8> 866 234<419.9 603.8>
VStem: 74 260<245.8 855.5> 104 243<-229.777 -99> 760 258<-207.8 157 917 1073>
Back
241.664 538.624 m 0
 241.664 264.192 339.968 108.544 489.472 108.544 c 0
 602.112 108.544 745.472 247.808 745.472 538.624 c 1
 745.472 796.672 589.824 958.464 450.56 958.464 c 1
 323.584 958.464 241.664 772.096 241.664 538.624 c 0
741.376 141.312 m 1
 731.136 119.808 665.6 -26.624 499.712 -26.624 c 1
 176.128 -26.624 88.0645 260.096 88.0645 542.72 c 0
 88.0645 825.344 208.896 1093.63 460.8 1093.63 c 0
 606.208 1093.63 679.936 1003.52 741.376 901.12 c 9
 741.376 1073.15 l 1
 892.928 1073.15 l 1
 892.928 -18.4316 l 2
 892.928 -290.816 710.656 -448.512 507.904 -448.512 c 1
 243.712 -448.512 129.024 -243.712 112.64 -108.544 c 0
 112.64 -108.544 200.09 -108.544 256 -108.544 c 17
 274.432 -227.328 380.928 -313.344 499.712 -313.344 c 0
 624.64 -313.344 741.376 -225.28 741.376 -32.7676 c 0
 741.376 141.312 l 1
EndSplineSet
Fore
745 -70 m 0xec
 793 157 l 1
 701 48 563 -28 447 -28 c 1
 247.401 -28 163.298 120.577 163.298 325.765 c 0
 163.298 389.913 171.519 459.595 187 532 c 0xf4
 252 836 423 1100 687 1100 c 0
 803 1100 909 1026 955 917 c 9
 988 1073 l 1
 1246 1073 l 1
 1007 -50 l 0
 962 -262 764 -461 454 -461 c 1
 168.08 -461 81.2188 -277.253 81.2188 -134.155 c 0
 81.2188 -122.104 81.8348 -110.341 83 -99 c 0
 83 -99 233 -92 328 -88 c 17
 327.569 -93.176 327.35 -98.2798 327.35 -103.301 c 0
 327.35 -179.764 378.072 -237 501 -237 c 0
 624 -237 723 -176 745 -70 c 0xec
448 537 m 0
 439.436 496.185 435.587 459.254 435.587 426.148 c 0
 435.587 277.559 513.128 206 590 206 c 0
 687 206 828 282 882 537 c 1
 891.924 583.495 896.343 624.012 896.343 659.178 c 0
 896.343 815.367 809.174 866 730 866 c 1
 633 866 500 782 448 537 c 0
EndSplineSet
EndChar
StartChar: h
Encoding: 72 104 127
Width: 1121
Flags: HW
HStem: 0 21G<119 377 756 1014> 867 235<515.9 694> 1434 20G<119 377>
VStem: 119 258<0 810 912 1454> 756 258<0 894.5>
Back
270.336 0 m 9
 118.784 0 l 1
 118.784 1454.08 l 1
 270.336 1454.08 l 1
 270.336 921.6 l 17
 339.968 995.328 417.792 1095.68 563.2 1095.68 c 0
 819.2 1095.68 905.216 880.64 905.216 622.592 c 0
 905.216 0 l 1
 753.664 0 l 0
 753.664 618.496 l 0
 753.664 790.528 684.032 958.464 573.44 958.464 c 1
 446.464 958.464 270.336 831.488 270.336 659.456 c 0
 270.336 0 l 9
EndSplineSet
Fore
377 0 m 9
 119 0 l 1
 428 1454 l 1
 686 1454 l 1
 571 912 l 17
 650 1016 792 1102 934 1102 c 0
 1053.38 1102 1170.67 998.158 1170.67 798.038 c 0
 1170.67 758.442 1166.08 715.076 1156 668 c 5
 1014 0 l 1
 756 0 l 0
 870 537 l 2
 885.789 610.595 892.985 668.433 892.985 713.678 c 0
 892.985 837.499 839.097 867 760 867 c 0
 652 867 549 810 491 536 c 2
 377 0 l 9
EndSplineSet
EndChar
StartChar: i
Encoding: 73 105 128
Width: 534
Flags: HMW
Back
120.832 1333.25 m 0
 120.832 1384.45 163.84 1427.46 215.04 1427.46 c 0
 266.24 1427.46 309.248 1384.45 309.248 1333.25 c 0
 309.248 1282.05 266.24 1239.04 215.04 1239.04 c 0
 163.84 1239.04 120.832 1282.05 120.832 1333.25 c 0
139.264 1073.15 m 1
 290.816 1073.15 l 1
 290.816 0 l 1
 139.264 0 l 1
 139.264 1073.15 l 1
EndSplineSet
Fore
405 1334 m 0
 423 1421 506 1494 586 1494 c 0
 655.138 1494 702.616 1439.48 702.616 1368.52 c 0
 702.616 1357.37 701.444 1345.81 699 1334 c 0
 680 1247 598 1174 518 1174 c 0
 449.177 1174 401.077 1228.03 401.077 1298.52 c 0
 401.077 1309.96 402.345 1321.84 405 1334 c 0
367 1073 m 1
 625 1073 l 1
 397 0 l 1
 139 0 l 1
 367 1073 l 1
EndSplineSet
EndChar
StartChar: j
Encoding: 74 106 129
Width: 534
Flags: HW
HStem: -432 229<-24.3395 110.1> 1053 20G<139 397>
VStem: 121 294<1220.9 1447.1> 139 258<-175.2 1073>
Back
120.832 1333.25 m 0
 120.832 1384.45 163.84 1427.46 215.04 1427.46 c 0
 266.24 1427.46 309.248 1384.45 309.248 1333.25 c 0
 309.248 1282.05 266.24 1239.04 215.04 1239.04 c 0
 163.84 1239.04 120.832 1282.05 120.832 1333.25 c 0
-247.808 -352.256 m 9
 -139.264 -260.096 l 1
 -114.688 -282.624 -77.8242 -294.912 -28.6719 -294.912 c 1
 102.4 -294.912 139.264 -208.896 139.264 0 c 1
 139.264 1073.15 l 1
 290.816 1073.15 l 0
 290.816 0 l 1
 290.816 -303.104 176.128 -430.08 -28.6719 -430.08 c 1
 -131.072 -430.08 -198.656 -399.36 -247.808 -352.256 c 9
EndSplineSet
Fore
405 1334 m 0xe0
 423 1421 506 1494 586 1494 c 0
 655.138 1494 702.616 1439.48 702.616 1368.52 c 0
 702.616 1357.37 701.444 1345.81 699 1334 c 0
 680 1247 598 1174 518 1174 c 0
 449.177 1174 401.077 1228.03 401.077 1298.52 c 0
 401.077 1309.96 402.345 1321.84 405 1334 c 0xe0
-307 -333 m 9
 -101 -161 l 1
 -90 -184 -55 -203 -20 -203 c 1
 47 -203 106 -156 119 -92 c 1
 367 1073 l 1
 625 1073 l 0
 390 -35 l 1xd0
 346 -240 113 -432 -80 -432 c 1
 -182 -432 -250 -416 -307 -333 c 9
EndSplineSet
EndChar
StartChar: k
Encoding: 75 107 130
Width: 999
Flags: HW
HStem: 0 21G<119 377 702 996> 1053 20G<658 973> 1434 20G<119 377>
VStem: 119 258<0 444 716 1454>
Back
417.792 630.784 m 1
 929.792 0 l 1
 755.712 0 l 1
 315.392 532.48 l 1
 270.336 479.232 l 1
 270.336 0 l 1
 118.784 0 l 1
 118.784 1454.08 l 1
 270.336 1454.08 l 1
 270.336 669.696 l 17
 671.744 1073.15 l 1
 845.824 1073.15 l 1
 417.792 630.784 l 1
EndSplineSet
Fore
705 597 m 1
 996 0 l 1
 702 0 l 1
 490 467 l 1
 471 444 l 1
 377 0 l 1
 119 0 l 1
 428 1454 l 1
 686 1454 l 1
 529 716 l 17
 886 1073 l 1
 1201 1073 l 1
 705 597 l 1
EndSplineSet
EndChar
StartChar: l
Encoding: 76 108 131
Width: 561
Flags: HW
HStem: 1434 20G<139 397>
VStem: 139 258<219.9 1454>
Back
290.816 215.04 m 1
 290.816 135.168 299.008 102.4 327.68 102.4 c 1
 327.68 -28.6719 l 1
 176.128 -28.6719 139.264 12.2881 139.264 210.944 c 1
 139.264 1454.08 l 1
 290.816 1454.08 l 1
 290.816 215.04 l 1
EndSplineSet
Fore
457 281 m 1
 455.054 271.855 453.941 262.975 453.941 254.603 c 0
 453.941 219.948 473.009 194 531 194 c 1
 484 -29 l 1
 287.014 -29 185.364 18.6673 185.364 170.273 c 0
 185.364 201.069 189.558 236.154 198 276 c 1
 448 1454 l 1
 706 1454 l 1
 457 281 l 1
EndSplineSet
EndChar
StartChar: braceleft
Encoding: 91 123 132
Width: 747
Flags: HW
HStem: -102 213<502 645> 1348 213<502 645>
VStem: 80 565<729 1561>
Back
79.8721 729.088 m 1
 350.208 815.104 241.664 1275.9 294.912 1400.83 c 1
 356.352 1525.76 487.424 1525.76 624.64 1529.86 c 1
 624.64 1394.69 l 1
 610.304 1396.74 595.968 1398.78 581.632 1398.78 c 0
 528.384 1398.78 456.704 1378.3 430.08 1339.39 c 1
 419.84 1320.96 417.792 1282.05 417.792 1236.99 c 2
 417.792 1191.94 l 2
 417.792 1071.1 393.216 770.048 292.863 729.088 c 1
 393.216 692.224 417.792 364.544 417.792 237.568 c 0
 417.792 194.56 l 0
 417.792 145.408 419.84 106.496 430.08 88.0645 c 1
 456.704 49.1523 528.384 28.6719 581.632 28.6719 c 0
 595.968 28.6719 610.304 30.7197 624.64 32.7676 c 1
 624.64 -102.4 l 1
 487.424 -98.3037 356.352 -98.3037 294.912 26.624 c 1
 241.664 151.552 350.208 647.168 79.8721 729.088 c 1
EndSplineSet
Fore
235 729 m 1
 500 811 520 1327 606 1444 c 0
 691 1559 819 1557 977 1561 c 1
 932 1348 l 1
 822 1348 767 1317 741 1196 c 0
 708 1042 641 782 509 729 c 1
 562.102 704.38 579.315 630.589 579.315 543.513 c 0
 579.315 450.211 559.552 341.658 543 262 c 0
 538.029 238.868 535.544 219.061 535.544 202.154 c 0
 535.544 130.626 580.029 111 669 111 c 1
 623 -102 l 1
 467 -99 339 -101 302 14 c 0
 298.87 24.1739 297.524 37.38 297.524 53.0665 c 0
 297.524 149.349 348.231 339.082 348.231 494.699 c 0
 348.231 605.293 322.621 698.655 235 729 c 1
EndSplineSet
EndChar
StartChar: bar
Encoding: 92 124 133
Width: 468
Flags: HW
HStem: 0 21G<115 358> 1434 20G<115 358>
VStem: 115 243<0 1454>
Back
114.688 0 m 17
 114.688 1454.08 l 1
 258.048 1454.08 l 1
 258.048 0 l 9
 114.688 0 l 17
EndSplineSet
Fore
115 0 m 17
 424 1454 l 1
 667 1454 l 1
 358 0 l 9
 115 0 l 17
EndSplineSet
EndChar
StartChar: braceright
Encoding: 93 125 134
Width: 747
Flags: HW
HStem: -102 213<121 264> 1348 213<121 264>
VStem: 121 565<-102 729>
Back
667.648 729.088 m 1
 397.312 647.168 505.856 157.696 452.608 32.7676 c 1
 391.168 -92.1602 260.096 -92.1602 122.88 -96.2559 c 1
 122.88 38.9121 l 1
 137.216 36.8643 151.552 34.8164 165.888 34.8164 c 0
 219.136 34.8164 290.816 55.2959 317.44 94.208 c 1
 327.68 112.64 329.728 151.552 329.728 200.704 c 0
 329.728 243.712 l 0
 329.728 370.688 354.304 692.224 454.656 729.088 c 1
 354.304 770.048 329.728 1071.1 329.728 1191.94 c 2
 329.728 1236.99 l 2
 329.728 1282.05 327.68 1320.96 317.44 1339.39 c 1
 290.816 1378.3 219.136 1398.78 165.888 1398.78 c 0
 151.552 1398.78 137.216 1396.74 122.88 1394.69 c 1
 122.88 1529.86 l 1
 260.096 1525.76 391.168 1525.76 452.608 1400.83 c 1
 505.856 1275.9 397.312 815.104 667.648 729.088 c 1
EndSplineSet
Fore
841 729 m 1
 576 649 556 131 470 14 c 0
 385 -101 257 -99 99 -102 c 1
 145 111 l 1
 255 111 309 141 335 262 c 0
 367 416 435 678 567 729 c 1
 513.701 754.681 496.323 828.96 496.323 916.232 c 0
 496.323 1009.07 515.99 1116.62 533 1196 c 0
 538.03 1219.41 540.553 1239.45 540.553 1256.55 c 0
 540.553 1327.83 496.718 1348 408 1348 c 1
 453 1561 l 1
 609 1557 737 1559 774 1444 c 0
 777.13 1433.83 778.476 1420.64 778.476 1404.97 c 0
 778.476 1308.85 727.769 1119.7 727.769 964.177 c 0
 727.769 853.649 753.379 760.103 841 729 c 1
EndSplineSet
EndChar
StartChar: asciitilde
Encoding: 94 126 135
Width: 759
Flags: HW
HStem: 512 247<376.8 603> 664 247<134.6 339.6>
VStem: 53 637<606 808 808 866>
Back
53.248 763.904 m 17
 98.3037 800.768 157.696 860.16 235.52 860.16 c 0
 333.824 860.16 397.312 708.608 501.76 708.608 c 1
 571.392 708.608 628.736 761.856 690.176 806.912 c 9
 690.176 661.504 l 17
 628.736 614.4 575.488 563.2 501.76 563.2 c 0
 387.072 563.2 315.392 714.752 233.472 714.752 c 0
 155.648 714.752 108.544 663.552 53.248 618.496 c 9
 53.248 763.904 l 17
EndSplineSet
Fore
225 808 m 17x60
 278 845 352 911 430 911 c 0x60
 528 911 569 759 673 759 c 1
 743 759 822 825 874 866 c 9
 819 606 l 17
 776 578 704 512 621 512 c 0xa0
 506 512 456 664 374 664 c 0
 297 664 245 612 174 567 c 9
 225 808 l 17x60
EndSplineSet
EndChar
StartChar: cent
Encoding: 97 162 138
Width: 884
Flags: HW
VStem: 70 243<530.2 716.1> 307 230<78 285 977 1208>
Back
370.688 278.528 m 1
 204.8 299.008 69.6318 434.176 69.6318 657.408 c 0
 69.6318 872.448 241.664 962.561 366.592 993.28 c 1
 366.592 1208.32 l 1
 501.76 1208.32 l 1
 501.76 993.28 l 1
 581.632 972.8 647.168 927.744 700.416 880.64 c 9
 610.304 786.432 l 2
 581.632 815.104 528.384 866.304 423.936 866.304 c 1
 313.344 866.304 212.992 778.24 212.992 653.312 c 0
 212.992 499.712 303.104 405.504 430.08 405.504 c 0
 512 405.504 581.632 438.272 638.976 512 c 9
 729.088 421.888 l 1
 688.128 356.352 604.16 305.152 505.856 274.432 c 1
 505.856 77.8242 l 1
 370.688 77.8242 l 1
 370.688 278.528 l 1
EndSplineSet
Fore
375 293 m 1x80
 269.245 311.177 193.525 398.982 193.525 537.239 c 0
 193.525 566.32 196.875 597.633 204 631 c 0x80
 246 827 409 948 514 976 c 1
 564 1208 l 1
 794 1208 l 1
 745 977 l 1x40
 796 966 874 907 910 837 c 9
 724 709 l 2
 723 709 723 709 723 709 c 0
 714 709 694 760 610 760 c 1
 534 760 461 696 447 629 c 0
 444.315 616.246 442.954 603.548 442.954 591.247 c 0
 442.954 530.247 476.432 479 548 479 c 0
 633 479 652 513 690 544 c 9
 822 408 l 1
 752 340 671 291 604 285 c 1
 560 78 l 1
 330 78 l 1
 375 293 l 1x80
EndSplineSet
EndChar
StartChar: sterling
Encoding: 98 163 139
Width: 1267
Flags: HW
HStem: 0 231<498 1004> 549 229<74 294 575 930> 1247 228<576.3 797.3>
VStem: 311 262<778 1105.4>
Back
301.056 595.968 m 1
 73.7275 595.968 l 1
 73.7275 731.136 l 1
 311.296 731.136 l 1
 311.296 1200.13 389.12 1466.37 585.729 1466.37 c 0
 729.088 1466.37 839.68 1376.26 913.408 1169.41 c 1
 770.048 1163.26 l 1
 749.568 1245.18 692.224 1333.25 585.729 1333.25 c 0
 520.192 1333.25 464.896 1093.63 464.896 933.888 c 2
 464.896 808.96 l 1
 464.896 731.136 l 1
 823.296 731.136 l 1
 823.296 595.968 l 1
 458.752 595.968 l 1
 447.914 444.25 391.381 252.543 352.256 135.168 c 1
 856.064 135.168 l 1
 888.832 137.216 923.648 139.264 972.8 206.848 c 1
 1052.67 92.1602 l 1
 1005.57 20.4805 923.648 12.2881 843.776 0 c 1
 135.168 0 l 1
 168.001 131.332 287.58 380.356 301.056 595.968 c 1
EndSplineSet
Fore
411 549 m 1
 191 549 l 1
 239 778 l 1
 476 778 l 1
 571 1222 719 1475 1006 1475 c 0
 1172 1475 1259 1372 1283 1138 c 1
 1048 1116 l 1
 1047 1179 1038 1247 957 1247 c 0
 868 1247 800 1070 775 952 c 2
 753 846 l 1
 738 778 l 1
 1095 778 l 1
 1047 549 l 1
 692 549 l 1
 651 444 613 321 547 231 c 1
 1010 231 l 1
 1053 231 1099 279 1119 308 c 1
 1233 156 l 1
 1153 35 1049 0 958 0 c 1
 135 0 l 1
 193 121 355 350 411 549 c 1
EndSplineSet
EndChar
StartChar: currency
Encoding: 99 164 140
Width: 987
Flags: HW
HStem: 305 334<53 164 819 934> 1083 20G<485.5 502>
VStem: 53 334<305 422 1084 1192> 600 334<305 424 1084 1192>
Back
143.36 753.664 m 4
 143.36 945.849 299.336 1101.82 491.521 1101.82 c 4
 683.704 1101.82 839.68 945.849 839.68 753.664 c 4
 839.68 561.479 683.704 405.504 491.521 405.504 c 4
 299.336 405.504 143.36 561.479 143.36 753.664 c 4
393.216 753.664 m 0
 393.216 807.928 437.256 851.968 491.521 851.968 c 0
 545.784 851.968 589.824 807.928 589.824 753.664 c 0
 589.824 699.4 545.784 655.36 491.521 655.36 c 0
 437.256 655.36 393.216 699.4 393.216 753.664 c 0
EndSplineSet
Fore
553 752 m 0
 551.379 744.519 550.613 737.396 550.613 730.657 c 0
 550.613 683.349 588.359 655 633 655 c 0
 684 655 739 701 750 752 c 0
 751.717 759.922 752.526 767.496 752.526 774.675 c 0
 752.526 821.866 717.53 852 675 852 c 0
 620 852 566 812 553 752 c 0
690 424 m 1
 656 410 596 406 580 406 c 0
 563 406 506 409 477 422 c 1
 452 305 l 1
 118 305 l 1
 189 639 l 1
 300 639 l 1
 297.101 653.014 295.369 669.597 295.369 687.732 c 0
 295.369 707.126 297.349 728.296 302 750 c 0
 311 791 327 831 342 858 c 1
 235 858 l 1
 306 1192 l 1
 640 1192 l 1
 617 1084 l 1
 651 1098 711 1103 728 1103 c 0
 744 1103 810 1096 830 1084 c 1
 853 1192 l 1
 1187 1192 l 1
 1116 858 l 1
 1005 858 l 1
 1005.75 841.952 1006.35 828.55 1006.35 815.924 c 0
 1006.35 794.718 1004.64 775.698 999 750 c 0
 990 708 975 678 955 639 c 1
 1070 639 l 1
 999 305 l 1
 665 305 l 1
 690 424 l 1
EndSplineSet
EndChar
StartChar: yen
Encoding: 100 165 141
Width: 1136
Flags: HW
HStem: 0 21G<420 678> 285 229<143 420 678 938> 635 229<143 313 783 938>
VStem: 420 258<0 285 514 635>
Back
460.8 681.984 m 1
 149.504 681.984 l 1
 149.504 817.152 l 1
 407.552 817.152 l 1
 63.4883 1396.74 l 1
 219.136 1396.74 l 1
 542.72 831.488 l 1
 886.784 1396.74 l 1
 1042.43 1396.74 l 1
 669.696 817.152 l 1
 917.504 817.152 l 1
 917.504 681.984 l 1
 612.352 681.984 l 1
 612.352 466.944 l 1
 917.504 466.944 l 1
 917.504 331.776 l 1
 612.352 331.776 l 1
 612.352 0 l 1
 460.8 0 l 1
 460.8 331.776 l 1
 149.504 331.776 l 1
 149.504 466.944 l 1
 460.8 466.944 l 1
 460.8 681.984 l 1
EndSplineSet
Fore
555 635 m 1
 278 635 l 1
 327 864 l 1
 497 864 l 1
 342 1397 l 1
 625 1397 l 1
 748 888 l 1
 1104 1397 l 1
 1366 1397 l 1
 967 864 l 1
 1122 864 l 1
 1073 635 l 1
 813 635 l 1
 787 514 l 1
 1047 514 l 1
 999 285 l 1
 739 285 l 1
 678 0 l 1
 420 0 l 1
 481 285 l 1
 204 285 l 1
 252 514 l 1
 529 514 l 1
 555 635 l 1
EndSplineSet
EndChar
StartChar: brokenbar
Encoding: 101 166 142
Width: 405
Flags: HW
HStem: 0 21G<80 324>
VStem: 80 244<0 666 768 1434>
Back
223.232 665.6 m 17
 223.232 0 l 1
 79.8721 0 l 1
 79.8721 665.6 l 9
 223.232 665.6 l 17
79.8721 768 m 17
 79.8721 1433.6 l 1
 223.232 1433.6 l 1
 223.232 768 l 9
 79.8721 768 l 17
EndSplineSet
Fore
466 666 m 17
 324 0 l 1
 80 0 l 1
 222 666 l 9
 466 666 l 17
243 768 m 17
 385 1434 l 1
 629 1434 l 1
 487 768 l 9
 243 768 l 17
EndSplineSet
EndChar
StartChar: section
Encoding: 102 167 143
Width: 694
Flags: HW
HStem: 821 193<276.718 384.776>
VStem: 33 236<665.736 854> 413 253<552 730.968>
Back
176.128 958.464 m 1
 194.809 963.801 216.384 966.654 241.664 966.656 c 0
 447.896 966.656 657.408 782.336 657.408 530.432 c 0
 657.408 307.2 516.096 104.448 339.968 104.448 c 0
 221.184 104.448 122.395 153.396 40.96 290.816 c 9
 190.464 301.056 l 17
 217.088 264.192 284.672 239.616 323.584 239.616 c 2
 327.68 239.616 l 2
 425.984 239.616 491.521 327.68 512 440.32 c 0
 514.707 455.211 470.452 432.134 446.464 432.128 c 0
 243.46 432.128 32.7676 577.536 32.7676 872.448 c 0
 32.7676 1089.54 159.744 1294.34 348.16 1294.34 c 0
 483.328 1294.34 544.768 1245.18 632.832 1130.5 c 1
 479.232 1114.11 l 0
 454.656 1140.74 397.312 1159.17 364.544 1159.17 c 2
 360.448 1159.17 l 2
 253.952 1159.17 200.704 1069.06 176.128 958.464 c 1
495.616 581.632 m 0
 495.616 698.368 389.12 831.488 239.616 831.488 c 0
 216.423 831.488 201.2 826.798 184.32 817.152 c 1
 184.32 698.368 319.488 567.296 440.32 567.296 c 0
 462.657 567.296 495.616 564.406 495.616 581.632 c 0
EndSplineSet
Fore
493 1005 m 1
 503 1011 514 1014 525 1014 c 0
 674.411 1014 796.032 875.052 796.032 671.14 c 0
 796.032 633.487 791.885 593.618 783 552 c 0
 728 293 533 57 352 57 c 0
 235 57 154 125 114 313 c 9
 338 356 l 17
 337.834 354.094 337.754 352.228 337.754 350.402 c 0
 337.754 308.134 380.539 287 393 287 c 1
 397 287 l 0
 441 287 482 338 505 404 c 1
 489 391 473 385 457 385 c 0
 318.278 385 197.965 490.683 197.965 704.302 c 0
 197.965 749.386 203.324 799.279 215 854 c 0
 268 1105 443 1341 629 1341 c 0
 762 1341 808 1269 858 1099 c 1
 633 1049 l 0
 633.247 1051.27 633.364 1053.47 633.364 1055.6 c 0
 633.364 1096.64 589.704 1112 584 1112 c 0
 544 1112 514 1064 493 1005 c 1
539 592 m 0
 544.75 618.75 547.625 646.438 547.625 672.922 c 0
 547.625 752.375 521.75 821 470 821 c 0
 459 821 450 819 441 810 c 1
 436.118 786.439 433.849 762.383 433.849 739.103 c 0
 433.849 652.706 465.099 577 510 577 c 0
 512 577 515 576 517 576 c 0
 526 576 536 578 539 592 c 0
EndSplineSet
EndChar
StartChar: dieresis
Encoding: 103 168 144
Width: 933
Flags: HW
HStem: 667 328<119 354.3 590 825.3>
VStem: 72 328<714 949.3> 543 328<714 949.3>
Back
536.576 837.632 m 0
 536.576 888.832 579.584 931.84 630.784 931.84 c 0
 681.984 931.84 724.992 888.832 724.992 837.632 c 0
 724.992 786.432 681.984 743.424 630.784 743.424 c 0
 579.584 743.424 536.576 786.432 536.576 837.632 c 0
65.5361 835.584 m 0
 65.5361 886.784 108.544 929.792 159.744 929.792 c 0
 210.944 929.792 253.952 886.784 253.952 835.584 c 0
 253.952 784.384 210.944 741.376 159.744 741.376 c 0
 108.544 741.376 65.5361 784.384 65.5361 835.584 c 0
EndSplineSet
Refer: 14 46 N 1 0 0 1 628 700 2
Refer: 14 46 N 1 0 0 1 157 700 2
EndChar
StartChar: copyright
Encoding: 104 169 145
Width: 1089
Flags: HW
HStem: 193 185<202.5 735.5> 496 159<402.7 515.784> 844 161<402.7 510.612> 1122 176<202.5 735.5>
VStem: -78 178<483.5 1016.5> 216 159<682.4 816.3> 839 165<483.5 1016.5>
Back
-77.8242 745.472 m 4
 -77.8242 1050.71 164.397 1298.43 462.848 1298.43 c 4
 761.299 1298.43 1003.52 1050.71 1003.52 745.472 c 4
 1003.52 440.238 761.299 192.512 462.848 192.512 c 4
 164.397 192.512 -77.8242 440.238 -77.8242 745.472 c 4
654.295 579.216 m 21
 608.952 533.873 540.938 496.087 470.405 496.087 c 4
 329.339 496.087 215.982 609.443 215.982 750.51 c 4
 215.982 891.576 329.339 1004.93 470.405 1004.93 c 4
 540.938 1004.93 608.952 977.224 654.295 931.881 c 13
 540.672 815.104 l 21
 522.24 831.488 495.616 843.776 468.992 843.776 c 4
 417.792 843.776 374.784 800.768 374.784 749.568 c 4
 374.784 698.368 417.792 655.36 468.992 655.36 c 4
 495.616 655.36 526.336 665.6 544.768 681.984 c 13
 654.295 579.216 l 21
99.5322 750.183 m 4
 99.5322 545.28 264.396 378.061 469.299 378.061 c 4
 674.201 378.061 839.065 545.28 839.065 750.183 c 4
 839.065 955.085 674.201 1122.3 469.299 1122.3 c 4
 264.396 1122.3 99.5322 955.085 99.5322 750.183 c 4
EndSplineSet
Fore
80 745 m 0
 145 1051 440 1298 739 1298 c 0
 997.511 1298 1174.75 1112.12 1174.75 863.101 c 0
 1174.75 825.061 1170.61 785.549 1162 745 c 0
 1098 440 802 193 504 193 c 0
 244.276 193 67.5516 379.371 67.5516 628.238 c 0
 67.5516 665.872 71.593 704.936 80 745 c 0
777 579 m 17
 723 534 646 496 575 496 c 0
 452.933 496 369.839 580.691 369.839 695.571 c 0
 369.839 713.389 371.837 731.933 376 751 c 0
 406 892 543 1005 684 1005 c 0
 755 1005 817 977 852 932 c 9
 714 815 l 17
 699 831 675 844 648 844 c 0
 597 844 545 801 534 750 c 0
 532.6 743.382 531.929 736.911 531.929 730.655 c 0
 531.929 687.752 563.49 655 608 655 c 0
 635 655 668 666 690 682 c 9
 777 579 l 17
259 750 m 0
 253.393 723.267 250.693 697.18 250.693 672.026 c 0
 250.693 504.285 370.733 378 549 378 c 0
 754 378 955 545 998 750 c 0
 1003.78 776.926 1006.56 803.196 1006.56 828.518 c 0
 1006.56 995.988 885.074 1122 707 1122 c 0
 502 1122 303 955 259 750 c 0
EndSplineSet
EndChar
StartChar: guillemotleft
Encoding: 106 171 146
Width: 907
Flags: HW
VStem: 51 756<827 1118>
Back
643.072 1118.21 m 1
 778.24 1118.21 l 1
 585.729 827.392 l 1
 778.24 536.576 l 1
 643.072 536.576 l 1
 450.56 827.392 l 1
 643.072 1118.21 l 1
241.664 1118.21 m 1
 376.832 1118.21 l 1
 184.32 827.392 l 1
 376.832 536.576 l 1
 241.664 536.576 l 1
 49.1523 827.392 l 1
 241.664 1118.21 l 1
EndSplineSet
Fore
830 1118 m 1
 1045 1118 l 1
 791 827 l 1
 921 536 l 1
 706 536 l 1
 575 827 l 1
 830 1118 l 1
478 1118 m 1
 697 1118 l 1
 443 827 l 1
 569 536 l 1
 354 536 l 1
 227 827 l 1
 478 1118 l 1
EndSplineSet
EndChar
StartChar: logicalnot
Encoding: 107 172 147
Width: 1120
Flags: HW
HStem: 698 244<143 774>
VStem: 774 230<350 698>
Back
909.312 544.768 m 1
 774.144 544.768 l 1
 774.144 749.568 l 0
 143.36 749.568 l 1
 143.36 892.928 l 1
 909.312 892.928 l 1
 909.312 544.768 l 1
EndSplineSet
Fore
1078 350 m 1
 848 350 l 1
 922 698 l 0
 291 698 l 1
 343 942 l 1
 1204 942 l 1
 1078 350 l 1
EndSplineSet
EndChar
StartChar: registered
Encoding: 109 174 149
Width: 1224
Flags: HW
HStem: 421 198<422.2 804.4> 1097 133<537 656.658> 1322 198<417 778.4>
VStem: 84 199<654.9 1278.9> 397 140<712 863 982 1097> 682 135<970.1 1109.2> 938 199<678.3 1284.1>
Back
200.704 749.568 m 0
 200.704 479.232 417.792 358.4 591.872 358.4 c 0
 770.048 358.4 985.088 499.712 985.088 749.568 c 0
 985.088 1019.9 745.472 1142.78 591.872 1142.78 c 0
 413.696 1142.78 200.704 1015.81 200.704 749.568 c 0
83.9678 749.568 m 0
 83.9678 1101.82 368.64 1259.52 591.872 1259.52 c 0
 868.352 1259.52 1101.82 1044.48 1101.82 749.568 c 0
 1101.82 446.464 847.872 241.664 591.872 241.664 c 0
 356.352 241.664 83.9678 413.696 83.9678 749.568 c 0
497.664 800.768 m 1
 514.048 800.768 530.432 800.768 548.864 800.768 c 0
 626.688 800.768 702.464 806.912 702.464 866.304 c 1
 702.464 927.744 608.256 931.84 526.336 931.84 c 0
 516.096 931.84 505.856 931.84 497.664 931.84 c 1
 497.664 800.768 l 1
415.744 1009.66 m 0
 497.664 1009.66 l 1
 647.168 1009.66 782.336 972.8 782.336 866.304 c 0
 782.336 765.952 692.224 739.328 595.968 724.992 c 1
 804.864 495.616 l 1
 704.512 495.616 l 1
 497.664 720.896 l 1
 497.664 495.616 l 1
 415.744 495.616 l 1
 415.744 1009.66 l 0
EndSplineSet
Fore
488 963 m 0
 481.41 932.374 478.359 903.919 478.359 877.585 c 0
 478.359 700.133 616.867 619 744 619 c 0
 892 619 1096 744 1143 963 c 0
 1149.47 993.714 1152.44 1022.34 1152.44 1048.92 c 0
 1152.44 1236.12 1005.08 1322 893 1322 c 0
 743 1322 539 1206 488 963 c 0
289 963 m 0
 371 1348 703 1520 935 1520 c 0
 1180.73 1520 1355.84 1346.04 1355.84 1091.06 c 0
 1355.84 1050.32 1351.37 1007.5 1342 963 c 0
 1273 640 965 421 701 421 c 0
 487.153 421 274.83 561.182 274.83 834.895 c 0
 274.83 874.77 279.336 917.478 289 963 c 0
771 982 m 1
 784 982 797 981 812 981 c 0
 874 981 887 986 898 1039 c 1
 899.625 1046.98 900.443 1053.87 900.443 1059.81 c 0
 900.443 1094.09 873.248 1097 817 1097 c 0
 809 1097 801 1097 795 1097 c 1
 771 982 l 1
683 1230 m 0
 823 1230 l 1
 958.659 1230 1039.07 1193.42 1039.07 1091.86 c 0
 1039.07 1075.89 1037.08 1058.3 1033 1039 c 0
 1011 935 959 919 906 893 c 1
 962 711 l 1
 811 711 l 1
 776 878 l 1
 750 883 l 1
 713 712 l 1
 573 712 l 1
 683 1230 l 0
EndSplineSet
EndChar
StartChar: macron
Encoding: 110 175 150
Width: 706
Flags: HW
HStem: 940 231<53 657>
Back
53.248 1130.5 m 1
 657.408 1130.5 l 1
 657.408 995.328 l 1
 53.248 995.328 l 1
 53.248 1130.5 l 1
EndSplineSet
Fore
302 1171 m 1
 906 1171 l 1
 857 940 l 1
 253 940 l 1
 302 1171 l 1
EndSplineSet
EndChar
StartChar: degree
Encoding: 111 176 151
Width: 763
Flags: HW
HStem: 866 162<195.7 406.3> 1328 162<195.7 406.3>
VStem: -17 173<1068.8 1285.9> 445 173<1068.8 1285.9>
Back
156.304 1177.7 m 4
 156.304 1093.96 219.832 1027.54 300.688 1027.54 c 4
 381.542 1027.54 445.071 1093.96 445.071 1177.7 c 4
 445.071 1261.45 381.542 1327.86 300.688 1327.86 c 4
 219.832 1327.86 156.304 1261.45 156.304 1177.7 c 4
-16.5684 1178.03 m 4
 -16.5684 1351.5 124.682 1490.27 300.626 1490.27 c 4
 476.569 1490.27 617.82 1351.5 617.82 1178.03 c 4
 617.82 1004.56 476.569 865.792 300.626 865.792 c 4
 124.682 865.792 -16.5684 1004.56 -16.5684 1178.03 c 4
EndSplineSet
Fore
406 1178 m 0
 403.764 1166.95 402.687 1156.22 402.687 1145.9 c 0
 402.687 1077.78 449.652 1028 520 1028 c 0
 601 1028 678 1094 695 1178 c 0
 697.509 1189.57 698.716 1200.83 698.716 1211.64 c 0
 698.716 1278.38 652.708 1328 583 1328 c 0
 502 1328 424 1261 406 1178 c 0
233 1178 m 0
 270 1351 442 1490 618 1490 c 0
 771.17 1490 875.109 1384.72 875.109 1243.38 c 0
 875.109 1222.31 872.8 1200.44 868 1178 c 0
 832 1005 661 866 485 866 c 0
 331.2 866 226.273 972.146 226.273 1114.37 c 0
 226.273 1134.9 228.459 1156.18 233 1178 c 0
EndSplineSet
EndChar
StartChar: acute
Encoding: 115 180 153
Width: 577
Flags: HW
HStem: 1132 434<251 316>
VStem: 107 386<1254 1418>
Back
90.1123 1247.23 m 1
 260.096 1490.94 l 1
 432.128 1490.94 l 2
 264.192 1247.23 l 2
 90.1123 1247.23 l 1
EndSplineSet
Fore
492 1132 m 2
 485 1126 477 1123 468 1123 c 0
 443 1123 411 1142 397 1155 c 0
 383.798 1166.44 365.949 1201.89 365.949 1229.32 c 0
 365.949 1233.06 366.281 1236.64 367 1240 c 0
 368 1245 370 1250 374 1254 c 2
 649 1566 l 1
 662 1579 679 1585 697 1585 c 0
 728 1585 761 1569 779 1553 c 0
 798.064 1538.91 813.006 1504.21 813.006 1471.1 c 0
 813.006 1464.27 812.369 1457.5 811 1451 c 0
 809 1439 803 1427 794 1418 c 1
 492 1132 l 2
EndSplineSet
EndChar
StartChar: mu
Encoding: 116 181 154
Width: 1128
Flags: HW
HStem: -29 234<498.4 651.8>
VStem: 143 244<-397 78 264 889> 762 244<0 84 320.1 889>
Back
286.72 74.0361 m 1
 286.72 -395.264 l 1
 143.36 -395.264 l 1
 143.36 872.448 l 1
 288.768 872.448 l 0
 288.768 413.696 l 0
 288.768 192.512 366.592 110.592 485.376 110.592 c 1
 645.12 110.592 716.8 290.816 716.8 413.696 c 0
 716.8 872.448 l 9
 860.16 872.448 l 1
 860.16 0 l 1
 716.8 0 l 1
 716.8 98.3037 l 17
 657.408 24.5762 575.478 -26.624 495.616 -26.624 c 0
 372.736 -26.624 331.776 28.6719 286.72 74.0361 c 1
EndSplineSet
Fore
404 78 m 1
 303 -397 l 1
 59 -397 l 1
 332 889 l 1
 580 889 l 0
 490 467 l 0
 483.434 436.004 480.506 408.365 480.506 383.78 c 0
 480.506 247.358 570.688 205 630 205 c 1
 723 205 837 354 861 467 c 0
 951 889 l 9
 1195 889 l 1
 1006 0 l 1
 762 0 l 1
 780 84 l 17
 729 8 632 -29 586 -29 c 0
 514 -29 419 22 404 78 c 1
EndSplineSet
EndChar
StartChar: paragraph
Encoding: 117 182 155
Width: 1286
Flags: HW
HStem: 0 229<735 883>
VStem: 111 243<861.1 1114.6> 492 243<229 570 847 1144> 883 257<229 565 781 1229>
Back
634.88 1259.52 m 1
 634.88 747.52 l 1
 669.696 747.52 815.104 739.328 851.968 739.328 c 1
 851.968 1271.81 l 1
 817.152 1271.81 671.744 1259.52 634.88 1259.52 c 1
491.521 1226.75 m 1
 385.024 1191.94 253.952 1134.59 253.952 995.328 c 1
 253.952 839.68 380.928 802.816 491.521 774.145 c 1
 491.521 1226.75 l 1
634.88 135.168 m 1
 851.968 135.168 l 1
 851.968 612.352 l 1
 815.104 612.352 671.744 622.592 634.88 622.592 c 1
 634.88 135.168 l 1
491.521 0 m 1
 491.521 643.072 l 1
 274.432 690.176 110.592 763.904 110.592 995.328 c 0
 110.592 1265.66 446.464 1396.74 806.912 1396.74 c 1
 1003.52 1396.74 l 0
 1003.52 0 l 1
 491.521 0 l 1
EndSplineSet
Fore
995 1221 m 1
 904 795 l 1
 915 795 1038 781 1049 781 c 1
 1144 1229 l 1
 1133 1229 1006 1221 995 1221 c 1
735 1144 m 1
 687 1124 586 1090 568 1008 c 1
 565.169 994.672 563.883 982.541 563.883 971.474 c 0
 563.883 888.714 635.836 865.523 672 847 c 1
 735 1144 l 1
784 229 m 1
 932 229 l 1
 1003 565 l 1
 992 565 867 570 856 570 c 1
 784 229 l 1
492 0 m 1
 623 618 l 1
 464.356 664.199 314.829 731.672 314.829 917.779 c 0
 314.829 945.178 318.07 975.148 325 1008 c 0
 387 1300 846 1441 1174 1441 c 1
 1446 1441 l 0
 1140 0 l 1
 492 0 l 1
EndSplineSet
EndChar
StartChar: cedilla
Encoding: 119 184 157
Width: 528
Flags: HW
HStem: -365 439<170 307>
VStem: 188 227<-180.3 -58.5005>
Back
106.496 -190.464 m 1
 137.216 -167.936 200.704 -122.88 200.704 -86.0156 c 0
 200.704 -53.248 178.176 -28.6719 145.408 18.4316 c 0
 274.432 73.7275 l 0
 317.44 32.7676 358.4 -28.6719 358.4 -98.3037 c 0
 358.4 -208.896 219.136 -270.336 149.504 -315.392 c 1
 106.496 -190.464 l 1
EndSplineSet
Fore
6 -238 m 1
 56 -213 152 -168 161 -127 c 0
 163.928 -113.195 166.857 -99.3902 166.857 -84.7068 c 0
 166.857 -64.2902 161.195 -42.1751 142 -16 c 9
 213 19 323 74 323 74 c 0
 359.332 33.5394 391.573 -23.9669 391.573 -90.0738 c 0
 391.573 -104.026 390.137 -118.361 387 -133 c 0
 363 -244 190 -319 92 -365 c 1
 6 -238 l 1
EndSplineSet
EndChar
StartChar: guillemotright
Encoding: 122 187 158
Width: 983
Flags: HW
VStem: 127 756<537 827>
Back
223.232 1118.21 m 1
 415.744 827.392 l 1
 223.232 536.576 l 1
 88.0645 536.576 l 1
 280.576 827.392 l 1
 88.0645 1118.21 l 1
 223.232 1118.21 l 1
624.64 1118.21 m 1
 817.152 827.392 l 1
 624.64 536.576 l 1
 489.472 536.576 l 1
 681.984 827.392 l 1
 489.472 1118.21 l 1
 624.64 1118.21 l 1
EndSplineSet
Fore
580 1119 m 1
 711 827 l 1
 456 537 l 1
 241 537 l 1
 495 827 l 1
 365 1118 l 1
 580 1119 l 1
932 1119 m 1
 1059 827 l 1
 808 537 l 1
 593 537 l 1
 843 827 l 1
 713 1118 l 1
 932 1119 l 1
EndSplineSet
EndChar
StartChar: AE
Encoding: 133 198 166
Width: 1589
Flags: HW
HStem: 0 250<1084 1473> 596 243<621 819 1085 1473> 1203 253<1085 1473>
VStem: 819 266<250 590 840 1203>
Back
775.021 645.346 m 1
 510.447 645.346 l 0
 251.935 0 l 0
 72.5918 0 l 1
 663.998 1456.13 l 1
 1372.83 1456.13 l 1
 1372.83 1307.21 l 0
 930.878 1307.21 l 0
 930.878 788.392 l 1
 1372.83 788.392 l 1
 1372.83 641.075 l 0
 930.878 641.075 l 0
 930.878 147.318 l 0
 1372.83 147.318 l 1
 1372.83 0 l 1
 775.021 0 l 1
 775.021 645.346 l 1
772.885 1236.75 m 1
 772.885 1311.48 l 1
 570.665 788.392 l 1
 775.021 788.392 l 1
 772.885 1236.75 l 1
EndSplineSet
Fore
946 596 m 1
 668 596 l 0
 308 0 l 0
 10 0 l 1
 895 1456 l 1
 1782 1456 l 1
 1729 1203 l 0
 1341 1203 l 0
 1264 840 l 1
 1652 840 l 1
 1598 590 l 0
 1209 590 l 0
 1137 250 l 0
 1526 250 l 1
 1473 0 l 1
 819 0 l 1
 946 596 l 1
1092 1286 m 1
 799 839 l 1
 997 839 l 1
 1092 1286 l 1
EndSplineSet
EndChar
StartChar: Eth
Encoding: 143 208 176
Width: 1480
Flags: HW
HStem: 0 243<528 991.1> 612 239<135 260 528 774> 1211 245<527 991.1>
VStem: 260 268<243 612 851 1211> 1090 267<352.6 1100.1>
Back
315.392 662.405 m 1
 134.184 662.405 l 1
 134.184 802.979 l 1
 315.392 802.979 l 1
 315.392 1456.13 l 1
 696.483 1456.13 l 1
 1062.83 1456.13 1301.22 1133.12 1301.22 726.303 c 1
 1301.22 319.488 1056.44 0 696.483 0 c 0
 470.549 0 l 1
 315.392 0 l 1
 315.392 662.405 l 1
472.679 662.405 m 1
 472.679 142.704 l 1
 696.483 142.704 l 1
 954.204 142.704 1143.93 379.126 1143.93 726.303 c 1
 1143.93 1073.48 954.204 1312.03 696.483 1312.03 c 1
 472.679 1312.03 l 1
 472.679 802.979 l 1
 773.161 802.979 l 1
 773.161 662.405 l 1
 472.679 662.405 l 1
EndSplineSet
Fore
390 612 m 1
 265 612 l 1
 316 851 l 1
 441 851 l 1
 569 1456 l 1
 1005 1456 l 1
 1342.74 1456 1532.22 1226.88 1532.22 912.018 c 0
 1532.22 853.039 1525.57 791.053 1512 727 c 1
 1425 320 1090 0 696 0 c 0
 471 0 l 1
 260 0 l 1
 390 612 l 1
658 612 m 1
 580 243 l 1
 748 243 l 1
 975 243 1183 439 1245 727 c 1
 1255.35 775.711 1260.32 821.83 1260.32 864.833 c 0
 1260.32 1075.2 1141.47 1211 953 1211 c 1
 784 1211 l 1
 708 851 l 1
 955 851 l 1
 904 612 l 1
 658 612 l 1
EndSplineSet
EndChar
StartChar: figuredash
Encoding: 191 8210 186
Width: 1177
Flags: HW
HStem: 494 229<201 969>
Back
159.744 675.84 m 1
 927.744 675.84 l 1
 927.744 540.672 l 1
 159.744 540.672 l 1
 159.744 675.84 l 1
EndSplineSet
Fore
355 723 m 1
 1123 723 l 1
 1074 494 l 1
 306 494 l 1
 355 723 l 1
EndSplineSet
EndChar
StartChar: endash
Encoding: 192 8211 187
Width: 1001
Flags: HW
HStem: 494 229<160 846>
Back
159.744 675.84 m 1
 845.824 675.84 l 1
 845.824 540.672 l 1
 159.744 540.672 l 1
 159.744 675.84 l 1
EndSplineSet
Fore
314 723 m 1
 1000 723 l 1
 951 494 l 1
 265 494 l 1
 314 723 l 1
EndSplineSet
EndChar
StartChar: emdash
Encoding: 193 8212 188
Width: 1290
Flags: HW
HStem: 494 229<139 1149>
Back
139.264 675.84 m 1
 1148.93 675.84 l 1
 1148.93 540.672 l 1
 139.264 540.672 l 1
 139.264 675.84 l 1
EndSplineSet
Fore
293 723 m 1
 1303 723 l 1
 1254 494 l 1
 244 494 l 1
 293 723 l 1
EndSplineSet
EndChar
